<?xml version="1.0" encoding="utf-8"?>
<!-- Generator: Adobe Illustrator 22.1.0, SVG Export Plug-In . SVG Version: 6.00 Build 0)  -->
<svg version="1.1" xmlns="http://www.w3.org/2000/svg" xmlns:xlink="http://www.w3.org/1999/xlink" x="0px" y="0px"
	 viewBox="0 0 200 52" style="enable-background:new 0 0 200 52;" xml:space="preserve">
<style type="text/css">
	.st0{display:none;}
	.st1{display:inline;}
	.st2{fill:#B57F56;}
	.st3{fill:#222222;}
	.st4{clip-path:url(#SVGID_2_);}
	.st5{fill:#EDCA93;}
	.st6{fill:#471E07;}
	.st7{clip-path:url(#SVGID_4_);}
	.st8{clip-path:url(#SVGID_6_);}
	.st9{opacity:0.2;}
	.st10{opacity:0.3;}
	.st11{clip-path:url(#SVGID_6_);fill:none;stroke:#000000;stroke-miterlimit:10;stroke-opacity:0.3;}
	.st12{fill:#2E1F1E;}
	.st13{opacity:0.1;}
	.st14{clip-path:url(#SVGID_8_);}
	.st15{clip-path:url(#SVGID_8_);fill:none;stroke:#000000;stroke-miterlimit:10;stroke-opacity:0.3;}
	.st16{fill:#333333;}
	.st17{fill:#313131;}
	.st18{fill:#2B2B2B;}
	.st19{fill:#555555;}
	.st20{fill:#DDDDDD;}
	.st21{fill:#2A2A2A;}
	.st22{fill:#111111;}
	.st23{fill:#777777;}
	.st24{fill:#AAAAAA;}
	.st25{fill:#EEEEEE;}
	.st26{fill:#FFB522;}
	.st27{fill:none;}
	.st28{fill:#FFEAC2;}
	.st29{filter:url(#Adobe_OpacityMaskFilter);}
	.st30{opacity:0.2;mask:url(#SVGID_9_);}
	.st31{fill:#452D29;}
	.st32{fill:#65BF60;}
	.st33{fill:#E03F6E;}
	.st34{fill:#0D0D0D;}
	.st35{fill:#FFFFFF;}
	.st36{fill:none;stroke:#AAAAAA;stroke-miterlimit:10;}
	.st37{fill:none;stroke:#DDDDDD;stroke-width:1.2;stroke-linecap:round;stroke-miterlimit:10;}
	.st38{fill:none;stroke:#DDDDDD;stroke-linecap:round;stroke-miterlimit:10;}
	.st39{opacity:0;fill:#AAAAAA;}
	.st40{opacity:0.9;}
	.st41{fill:none;stroke:#AAAAAA;stroke-linecap:round;stroke-miterlimit:10;}
	.st42{fill:none;stroke:#DDDDDD;stroke-linecap:round;stroke-linejoin:round;stroke-miterlimit:10;}
	.st43{clip-path:url(#SVGID_11_);}
	.st44{filter:url(#Adobe_OpacityMaskFilter_1_);}
	.st45{opacity:0.2;mask:url(#SVGID_12_);}
	.st46{opacity:0;}
	.st47{fill:none;stroke:#2B2B2B;stroke-miterlimit:10;}
	.st48{clip-path:url(#SVGID_14_);}
	.st49{clip-path:url(#SVGID_16_);}
	.st50{filter:url(#Adobe_OpacityMaskFilter_2_);}
	.st51{opacity:0.2;mask:url(#SVGID_17_);}
	.st52{clip-path:url(#SVGID_19_);}
	.st53{opacity:0.9;fill:#AAAAAA;}
</style>
<g id="图层_2" class="st0">
	<g class="st1">
		<rect x="-2340" y="-1434" width="4504" height="3800"/>
	</g>
	<g class="st1">
		<rect x="-41.5" y="-21.5" class="st2" width="713" height="256"/>
		<path class="st3" d="M671-21v255H-41V-21H671 M672-22h-1H-41h-1v1v255v1h1h712h1v-1V-21V-22L672-22z"/>
	</g>
</g>
<g id="图层_1">
	<rect class="st39" width="50" height="52"/>
	<rect x="50" class="st39" width="50" height="52"/>
	<rect x="100" class="st39" width="50" height="52"/>
	<rect x="150" class="st39" width="50" height="52"/>
	<g class="st40">
		<path class="st24" d="M136.6,31h-23.2c-1.84,0-3.33,1.49-3.33,3.33c0,1.84,1.49,3.33,3.33,3.33h23.2c1.84,0,3.33-1.49,3.33-3.33
			C139.93,32.49,138.44,31,136.6,31z"/>
		<path class="st24" d="M137.73,20.86h-25.46c-1.22,0-2.2,0.99-2.2,2.2s0.99,2.2,2.2,2.2h25.46c1.22,0,2.2-0.99,2.2-2.2
			S138.95,20.86,137.73,20.86z"/>
		<path class="st24" d="M111.27,15.13h27.46c0.66,0,1.2-0.54,1.2-1.2s-0.54-1.2-1.2-1.2h-27.46c-0.66,0-1.2,0.54-1.2,1.2
			S110.6,15.13,111.27,15.13z"/>
	</g>
	<g class="st40">
		<path class="st24" d="M33.25,10.81h-16.5c-1.1,0-2,0.9-2,2v16.5c0,1.1,0.9,2,2,2h16.5c1.1,0,2-0.9,2-2v-16.5
			C35.25,11.71,34.35,10.81,33.25,10.81z M33.25,29.31h-16.5v-16.5h16.5V29.31z"/>
		<path class="st24" d="M30.07,35.55c-0.31-0.24-0.76-0.02-0.76,0.37v2.83h-8.64v-2.83c0-0.39-0.45-0.61-0.76-0.37L15,39.39
			c-0.24,0.19-0.24,0.55,0,0.74l4.93,3.83c0.31,0.24,0.76,0.02,0.76-0.37v-2.83h8.64v2.83c0,0.39,0.45,0.61,0.76,0.37L35,40.13
			c0.24-0.19,0.24-0.55,0-0.74L30.07,35.55z"/>
	</g>
	<g class="st40">
		<path class="st24" d="M78.26,15.75h-16.5c-1.1,0-2,0.9-2,2v16.5c0,1.1,0.9,2,2,2h16.5c1.1,0,2-0.9,2-2v-16.5
			C80.26,16.65,79.37,15.75,78.26,15.75z M78.26,34.25h-16.5v-16.5h16.5V34.25z"/>
		<path class="st24" d="M92.54,30.32h-2.83v-8.64h2.83c0.39,0,0.61-0.45,0.37-0.76L89.08,16c-0.19-0.24-0.55-0.24-0.74,0l-3.83,4.93
			c-0.24,0.31-0.02,0.76,0.37,0.76h2.83v8.64h-2.83c-0.39,0-0.61,0.45-0.37,0.76L88.34,36c0.19,0.24,0.55,0.24,0.74,0l3.83-4.93
			C93.15,30.77,92.93,30.32,92.54,30.32z"/>
	</g>
	<path class="st53" d="M184.96,17.33c0.65-0.11,1.26-0.43,1.7-0.99c0.92-1.18,0.7-2.88-0.48-3.8c-1.18-0.92-2.88-0.7-3.8,0.48
		c-0.44,0.56-0.6,1.24-0.54,1.89l-1.46-1.13c-0.59-0.46-1.44-0.35-1.9,0.24l-3.13,4.03c-0.46,0.59-0.35,1.44,0.24,1.9l0.36,0.28
		l-12.09,15.56c-0.14,0.18-0.21,0.39-0.21,0.62l0.02,3.83c0,0.31,0.14,0.6,0.39,0.79c0.17,0.13,0.38,0.2,0.59,0.21
		c0.09,0,0.18-0.01,0.27-0.03l3.72-0.93c0.22-0.05,0.41-0.18,0.55-0.36l12.09-15.56l0.36,0.28c0.59,0.46,1.44,0.35,1.9-0.24
		l3.13-4.03c0.46-0.59,0.35-1.44-0.24-1.9L184.96,17.33z M167.82,38.41l-2.14,0.54l-0.01-2.21l11.88-15.29l2.15,1.67L167.82,38.41z"
		/>
</g>
</svg>
