<?xml version="1.0" encoding="utf-8"?>
<!-- Generator: Adobe Illustrator 22.1.0, SVG Export Plug-In . SVG Version: 6.00 Build 0)  -->
<svg version="1.1" xmlns="http://www.w3.org/2000/svg" xmlns:xlink="http://www.w3.org/1999/xlink" x="0px" y="0px"
	 viewBox="0 0 420 88" style="enable-background:new 0 0 420 88;" xml:space="preserve">
<style type="text/css">
	.st0{display:none;}
	.st1{display:inline;}
	.st2{fill:#B57F56;}
	.st3{fill:#222222;}
	.st4{clip-path:url(#SVGID_2_);}
	.st5{fill:#EDCA93;}
	.st6{opacity:0.6;clip-path:url(#SVGID_2_);}
	.st7{fill:#FFFFFF;}
	.st8{clip-path:url(#SVGID_4_);}
	.st9{opacity:0.2;}
	.st10{opacity:0.3;}
	.st11{clip-path:url(#SVGID_4_);fill:none;stroke:#000000;stroke-miterlimit:10;stroke-opacity:0.3;}
	.st12{fill:#2E1F1E;}
	.st13{opacity:0.1;}
	.st14{clip-path:url(#SVGID_6_);}
	.st15{clip-path:url(#SVGID_6_);fill:none;stroke:#000000;stroke-miterlimit:10;stroke-opacity:0.3;}
	.st16{fill:#333333;}
	.st17{fill:#2B2B2B;}
	.st18{fill:#111111;}
	.st19{fill:#555555;}
	.st20{fill:#777777;}
	.st21{fill:#AAAAAA;}
	.st22{fill:#DDDDDD;}
	.st23{fill:#EEEEEE;}
	.st24{fill:#FFB522;}
	.st25{fill:none;}
	.st26{fill:#FFEAC2;}
	.st27{filter:url(#Adobe_OpacityMaskFilter);}
	.st28{opacity:0.2;mask:url(#SVGID_7_);}
	.st29{fill:#452D29;}
	.st30{fill:#65BF60;}
	.st31{fill:#E03F6E;}
	.st32{fill:#0D0D0D;}
	.st33{fill:none;stroke:#AAAAAA;stroke-miterlimit:10;}
	.st34{fill:#471E07;}
</style>
<g id="图层_2" class="st0">
	<g class="st1">
		<rect x="-2567" y="-1564" width="4504" height="3800"/>
	</g>
	<g class="st1">
		<rect x="-268.5" y="-12.5" class="st2" width="557.25" height="87"/>
		<path class="st3" d="M288.25-12v86H-268v-86H288.25 M289.25-13h-1H-268h-1v1v86v1h1h556.25h1v-1v-86V-13L289.25-13z"/>
	</g>
</g>
<g id="图层_1">
	<g>
		<g>
			<path class="st34" d="M56.33,73.02c8.27-0.13,16.63-0.63,24.85-1.5c6.56-0.7,11.6-2.94,15.48-8.43c0.77-1.1-1.03-2.14-1.8-1.05
				c-4.47,6.33-10.7,7.2-17.92,7.76c-6.86,0.53-13.74,1.04-20.62,1.14C55,70.96,54.99,73.04,56.33,73.02L56.33,73.02z"/>
		</g>
		<g>
			<path class="st34" d="M32.35,32.27c1.75-3.51,4.27-6.67,7.21-9.26c1.68-1.48,10.01-7.57,11.3-4.09c0.65,1.76-1.09,5.37-1.18,7.31
				c-0.1,2.19,0.32,4.39,1.94,5.98c3.84,3.79,8.99,1.25,12.57-1.44c6.08-4.57,11.15-10.75,18.41-13.53
				c-0.18-0.67-0.37-1.34-0.55-2.01c-7.53,3.1-12.29,10.47-16.32,17.18c-5.49,9.14-9.99,18.91-16.26,27.56
				c-6.7,9.25-17.28,18.43-28.79,20.58c-4.43,0.83-11.21,0.86-13.96-3.47c-0.72-1.14-1.15-2.63-0.7-3.96
				c0.25-0.74,0.67-1.35,1.34-1.77c1.63-1.01,4.64,0.67,2.01,2.07c-1.18,0.63-0.13,2.43,1.05,1.8c5.71-3.06-1.32-9.46-5.4-4.55
				c-4,4.83,1.55,10.4,6.13,11.7c10.75,3.04,22.03-3.79,29.93-10.41c8.64-7.25,14.28-16.75,19.68-26.5
				c5.28-9.53,11.03-23.77,21.85-28.22c1.21-0.5,0.71-2.49-0.55-2.01c-6.96,2.67-11.99,8.16-17.67,12.76
				c-2.61,2.12-6.65,5.45-10.2,3.54c-3.65-1.96-2.3-6.47-1.67-9.67c0.95-4.78-0.69-6.89-5.77-5.43c-7,2.02-13.01,8.41-16.19,14.79
				C29.95,32.42,31.75,33.47,32.35,32.27L32.35,32.27z"/>
		</g>
		<g>
			<path class="st34" d="M132.2,3.68C113.02,4.89,99.8,18.91,91.44,34.97c-4.64,8.92-8.43,19.09-15.2,26.67
				c-4.21,4.71-10.85,9.54-17.46,9.76c-1.33,0.04-1.34,2.13,0,2.08c15.03-0.51,23.78-16.27,29.62-27.87
				c4.4-8.75,8.47-18.14,15.2-25.41c7.4-7.99,17.62-13.75,28.59-14.44C133.53,5.68,133.54,3.6,132.2,3.68L132.2,3.68z"/>
		</g>
		<g>
			<path class="st34" d="M116.69,72.82c2.79-0.44,5.76-3.6,2.67-5.97c-2.71-2.08-6.65,0.71-8.33,2.91
				c-4.29,5.62,0.03,12.14,5.99,13.92c11.26,3.36,25.78-4.5,33.24-12.52c3.17-3.41,5.91-7.97,5.14-12.8
				c-0.66-4.17-4.05-7.94-7.98-9.36c-4.94-1.78-10.82-0.94-15.83,0.07c-1.55,0.31-7.74,0.94-7.92,3.26
				c-0.03,0.36,0.22,0.72,0.52,0.9c1.36,0.84,4.24-0.08,5.71-0.34c3.86-0.68,7.64-1.8,11.31-3.17c7.29-2.72,14.58-6.47,20.09-12.06
				c5.66-5.73,9.92-12.72,15.51-18.53c2.81-2.93,5.74-5.28,9.45-6.92c1.41-0.63,1.61-1,0.89,0.19c-0.56,0.92-1.39,1.71-2.14,2.46
				c-4.37,4.33-10.32,8.22-16.38,9.57c-2.75,0.61-6.07,0.73-8.45-1.03c-2.06-1.52-2.79-4.17-3.89-6.35
				c-6.15-12.17-24.35-4.06-31.21,3.33c-4.06,4.37-9.12,13.58-4.7,19.31c4.62,6.01,14.23,1.56,19.19-1.34
				c1.15-0.68,0.11-2.47-1.05-1.8c-4.02,2.35-13.49,7.16-16.88,1.28c-3.22-5.58,2.48-13.92,6.45-17.5
				c4.67-4.21,11.14-7.12,17.47-7.29c5.26-0.15,7.61,2.22,9.68,6.66c3.19,6.86,9.05,8.47,16.15,6.12
				c6.1-2.03,14.15-6.62,17.56-12.36c0.72-1.2,1.31-2.75-0.27-3.52c-2.52-1.23-7.03,2.18-8.77,3.54
				c-9.19,7.15-14.18,18.32-23.22,25.54c-5.03,4.02-11,6.93-17.04,9.08c-2.52,0.9-5.09,1.67-7.7,2.27
				c-1.13,0.26-2.27,0.49-3.41,0.67c-0.26,0.04-5.76,0.29-3.05,1.96c0.24,0.15,3.03-1.05,3.44-1.15c2.34-0.63,4.73-1.09,7.13-1.39
				c5.25-0.64,10.98-0.75,14.84,3.41c5.33,5.73,1.15,12.92-3.63,17.38c-5.87,5.48-14.08,9.75-22.07,10.83
				c-4.55,0.61-10.93,0.06-13.21-4.69c-0.79-1.66-0.81-3.57-0.01-5.22c0.44-0.91,1.12-1.71,1.9-2.35c0.34-0.28,0.9-0.77,1.32-0.9
				c0.4-0.18,0.81-0.37,1.21-0.55c1.36,1.73,1.28,2.55-0.25,2.47C114.81,71.02,115.37,73.03,116.69,72.82L116.69,72.82z"/>
		</g>
		<g>
			<path class="st34" d="M38.71,50.87c15.01-1.83,30.02-3.67,45.03-5.5c1.31-0.16,1.33-2.24,0-2.08
				c-15.01,1.83-30.02,3.67-45.03,5.5C37.4,48.95,37.38,51.03,38.71,50.87L38.71,50.87z"/>
		</g>
		<path class="st34" d="M107.06,47.87c0.19,0,0.4,0.14,0.43,0.38c0.02,0.15-0.04,0.26-0.09,0.33c-0.05,0.07-0.14,0.15-0.34,0.17
			c-0.19,0-0.4-0.15-0.43-0.39c-0.02-0.15,0.04-0.26,0.09-0.32c0.05-0.07,0.14-0.15,0.29-0.16L107.06,47.87 M107.06,45.07
			c-0.13,0-0.26,0.01-0.4,0.02c-1.77,0.22-3.04,1.83-2.82,3.6c0.2,1.64,1.6,2.85,3.21,2.85c0.13,0,0.26-0.01,0.39-0.02
			c1.77-0.22,3.04-1.84,2.82-3.61C110.07,46.27,108.67,45.07,107.06,45.07L107.06,45.07z"/>
		<path class="st34" d="M196.11,53.35c-0.06-0.03-0.2-0.09-0.4-0.18c-0.2-0.09-0.33-0.16-0.4-0.22c-0.06-0.03-0.23-0.12-0.51-0.26
			s-0.45-0.25-0.51-0.31c-0.06-0.03-0.19-0.09-0.4-0.17c-0.2-0.09-0.33-0.15-0.39-0.18c-0.03-0.03-0.13-0.06-0.28-0.11
			c-0.15-0.04-0.26-0.06-0.32-0.06c-0.06-0.06-0.25-0.15-0.56-0.29c-0.31-0.13-0.51-0.22-0.6-0.29c-0.09,0-0.31,0-0.64-0.01
			c-0.34-0.01-0.55-0.01-0.64-0.01c-0.16,0-0.4,0.02-0.74,0.04c-0.34,0.02-0.52,0.04-0.55,0.04c-0.09,0-0.31,0.03-0.66,0.08
			c-0.35,0.06-0.59,0.1-0.71,0.13c-0.06,0-0.14,0.03-0.23,0.07c-0.09,0.05-0.13,0.09-0.13,0.12c-0.06,0.06-0.16,0.27-0.31,0.61
			c-0.15,0.34-0.23,0.54-0.26,0.6c-0.03,0.06-0.13,0.23-0.29,0.49c-0.16,0.27-0.26,0.43-0.29,0.49c0,0.03-0.03,0.1-0.09,0.21
			c-0.06,0.11-0.09,0.18-0.09,0.21c-0.09,0.13-0.21,0.32-0.38,0.58c-0.16,0.27-0.32,0.54-0.49,0.82s-0.3,0.54-0.42,0.77
			c-0.12,0.23-0.19,0.37-0.22,0.4c-0.03,0.03-0.09,0.12-0.18,0.26c-0.09,0.14-0.19,0.29-0.31,0.45c-0.12,0.16-0.22,0.3-0.31,0.45
			c-0.09,0.14-0.15,0.22-0.18,0.26c-0.03,0.06-0.14,0.3-0.33,0.72c-0.19,0.42-0.33,0.72-0.42,0.91c-0.03,0.06-0.09,0.22-0.17,0.49
			c-0.09,0.26-0.14,0.42-0.17,0.49c-0.03,0.06-0.07,0.14-0.11,0.23c-0.04,0.09-0.08,0.14-0.11,0.14c0,0.15-0.05,0.23-0.18,0.24
			l-1.56,0.04c-0.12,0-0.19-0.07-0.19-0.22c-0.03-0.06-0.05-0.12-0.05-0.18c0-0.03,0.01-0.09,0.04-0.18c0-0.06,0.02-0.19,0.06-0.39
			c0.04-0.2,0.07-0.33,0.11-0.4c0.03-0.09,0.09-0.29,0.17-0.6c0.09-0.31,0.14-0.51,0.17-0.6c0.06-0.09,0.13-0.26,0.22-0.51
			s0.14-0.4,0.17-0.46c0.09-0.19,0.21-0.45,0.37-0.79c0.16-0.34,0.32-0.68,0.46-1.02c0.14-0.34,0.28-0.64,0.42-0.9
			c0.13-0.26,0.21-0.43,0.24-0.49c0.06-0.12,0.18-0.33,0.35-0.61s0.36-0.58,0.55-0.89s0.38-0.61,0.58-0.89
			c0.19-0.28,0.33-0.48,0.42-0.61c0-0.03,0.01-0.08,0.02-0.14c0.01-0.06,0.02-0.11,0.02-0.14c0-0.06-0.01-0.12-0.03-0.18
			c-0.02-0.06-0.03-0.11-0.03-0.14c-0.03-0.03-0.13-0.09-0.3-0.18c-0.17-0.09-0.27-0.15-0.3-0.18l-0.61-0.59l-0.01-0.46l-0.01-0.51
			c0-0.12,0.07-0.26,0.22-0.42c0-0.12,0.06-0.19,0.18-0.19l0.37-0.19c0.06,0,0.2-0.02,0.41-0.06c0.21-0.03,0.44-0.06,0.69-0.08
			c0.25-0.02,0.47-0.05,0.67-0.08c0.2-0.04,0.33-0.05,0.39-0.06c0.31-0.01,0.49-0.08,0.55-0.22s0.21-0.34,0.45-0.59
			c0-0.03,0.03-0.12,0.09-0.28c0.06-0.15,0.09-0.26,0.08-0.32c0.12-0.21,0.18-0.34,0.18-0.37c0.03-0.09,0.02-0.28-0.01-0.58
			c-0.04-0.29-0.06-0.48-0.06-0.57c-0.06,0-0.22,0-0.46-0.01c-0.25-0.01-0.4-0.01-0.46-0.01c-0.06,0-0.19,0.03-0.39,0.08
			s-0.33,0.11-0.39,0.17c-0.03,0-0.1,0.03-0.21,0.07c-0.11,0.05-0.17,0.09-0.21,0.12c-0.06,0-0.25,0.06-0.57,0.18
			s-0.63,0.22-0.94,0.32c-0.18,0.07-0.39,0.14-0.64,0.22s-0.44,0.13-0.6,0.13c-0.12,0.03-0.3,0.08-0.55,0.13
			c-0.24,0.05-0.49,0.09-0.73,0.13c-0.25,0.04-0.48,0.07-0.69,0.11c-0.21,0.04-0.34,0.05-0.37,0.05c-0.03,0.03-0.17,0.05-0.41,0.06
			l-0.51,0.01l-0.51,0.01c-0.21,0.01-0.32-0.01-0.32-0.04c-0.06,0-0.19-0.04-0.39-0.13c-0.2-0.09-0.33-0.16-0.4-0.22
			c-0.06-0.03-0.16-0.14-0.31-0.34c-0.14-0.2-0.25-0.34-0.31-0.43c-0.09-0.15-0.22-0.37-0.38-0.66c-0.16-0.29-0.24-0.46-0.24-0.52
			c-0.04-0.43-0.06-0.69-0.07-0.78c0-0.15,0-0.35,0.01-0.57c0.01-0.23,0.01-0.36,0.01-0.39c0-0.06,0.02-0.14,0.06-0.23
			c0.04-0.09,0.08-0.15,0.11-0.19c0.06-0.06,0.16-0.14,0.29-0.24c0.14-0.1,0.23-0.14,0.29-0.14c0-0.03,0.06-0.05,0.18-0.05
			c0.12,0,0.2,0.01,0.23,0.04c0.03,0,0.09,0.04,0.19,0.13c0.09,0.09,0.16,0.17,0.19,0.23l0.03,1.38c0,0.06,0.03,0.16,0.08,0.3
			c0.05,0.14,0.09,0.24,0.12,0.3c0.25,0.24,0.41,0.43,0.47,0.56c0.07,0.14,0.25,0.2,0.56,0.2l1.06-0.03l1.1-0.03
			c0.09,0,0.31-0.03,0.67-0.08c0.35-0.05,0.59-0.1,0.71-0.13c0.03-0.03,0.09-0.07,0.18-0.12c0.09-0.05,0.15-0.09,0.18-0.12
			c0.06,0,0.16-0.03,0.3-0.08c0.14-0.05,0.24-0.09,0.3-0.12c0.06,0,0.2-0.04,0.41-0.1c0.21-0.07,0.33-0.1,0.37-0.1l1.78-0.64
			c0.15-0.06,0.42-0.2,0.79-0.41s0.63-0.35,0.75-0.41c0.06-0.03,0.22-0.17,0.47-0.4c0.25-0.24,0.41-0.37,0.47-0.4
			c0.15-0.03,0.24-0.05,0.28-0.05c0.06,0,0.17,0.01,0.32,0.04c0.12,0,0.18,0.06,0.19,0.18c0.07,0.18,0.14,0.32,0.24,0.41l0.01,0.37
			l0.01,0.41c-0.03,0.09-0.06,0.32-0.1,0.67s-0.07,0.59-0.1,0.72l0.09,0l0.14,0c0-0.03,0.02-0.07,0.07-0.12s0.08-0.09,0.11-0.12
			c0.09-0.06,0.29-0.24,0.59-0.52c0.3-0.29,0.63-0.6,0.97-0.95c0.34-0.34,0.67-0.67,0.96-0.97c0.3-0.3,0.48-0.49,0.54-0.59
			c0.03-0.03,0.08-0.09,0.16-0.16c0.07-0.08,0.19-0.18,0.34-0.31c0.27-0.28,0.43-0.45,0.5-0.52c0.06-0.06,0.24-0.24,0.54-0.52
			c0.21-0.22,0.44-0.46,0.7-0.73c0.25-0.27,0.51-0.53,0.77-0.78c0.25-0.25,0.48-0.46,0.68-0.64c0.2-0.17,0.32-0.29,0.38-0.36
			l0.4-0.42c0.06-0.06,0.22-0.2,0.47-0.4c0.25-0.21,0.41-0.34,0.47-0.4c0.03-0.03,0.13-0.1,0.29-0.19c0.17-0.1,0.27-0.16,0.3-0.19
			c0.03-0.03,0.12-0.13,0.27-0.3c0.15-0.17,0.25-0.27,0.31-0.31c0.03-0.03,0.16-0.14,0.38-0.33c0.23-0.19,0.48-0.4,0.77-0.64
			c0.29-0.24,0.57-0.47,0.86-0.71c0.29-0.23,0.5-0.42,0.65-0.54c0.12-0.06,0.28-0.17,0.48-0.33s0.31-0.25,0.34-0.29
			c0.06-0.06,0.26-0.2,0.59-0.4c0.33-0.21,0.57-0.34,0.73-0.41c0.15-0.1,0.38-0.22,0.68-0.38c0.3-0.16,0.47-0.24,0.5-0.24l0.37-0.01
			l0.41-0.01c0.28-0.01,0.54,0.05,0.79,0.17c0.25,0.12,0.45,0.25,0.61,0.4c0.09,0.06,0.24,0.19,0.45,0.38
			c0.2,0.19,0.32,0.32,0.35,0.38c0.03,0.03,0.07,0.12,0.12,0.27c0.05,0.15,0.08,0.26,0.08,0.32c0.06,0.12,0.12,0.3,0.17,0.55
			c0.05,0.24,0.08,0.38,0.08,0.41l0.04,1.7l0.03,1.47c0,0.03-0.05,0.19-0.15,0.49s-0.18,0.52-0.24,0.67c0,0.03-0.03,0.1-0.09,0.21
			c-0.06,0.11-0.09,0.18-0.09,0.21c-0.03,0.03-0.07,0.13-0.11,0.28c-0.04,0.16-0.06,0.26-0.06,0.32c-0.03,0.03-0.08,0.1-0.16,0.21
			c-0.07,0.11-0.15,0.23-0.24,0.38s-0.17,0.26-0.24,0.37c-0.08,0.11-0.11,0.18-0.11,0.21c-0.03,0.03-0.07,0.1-0.11,0.21
			s-0.08,0.18-0.11,0.21c-0.06,0.1-0.16,0.24-0.29,0.45c-0.13,0.21-0.23,0.32-0.29,0.35c-0.03,0.06-0.18,0.2-0.45,0.4
			c-0.27,0.21-0.44,0.34-0.5,0.4l-2.88,3.01c-0.03,0.03-0.13,0.11-0.29,0.21c-0.17,0.11-0.26,0.18-0.29,0.22
			c-0.06,0.03-0.19,0.13-0.38,0.28c-0.2,0.16-0.32,0.25-0.38,0.29c-0.09,0.06-0.28,0.18-0.57,0.34c-0.29,0.16-0.59,0.33-0.91,0.51
			c-0.32,0.18-0.64,0.35-0.95,0.5c-0.32,0.16-0.54,0.27-0.66,0.34c-0.03,0-0.16,0.05-0.39,0.15c-0.23,0.1-0.49,0.22-0.78,0.36
			c-0.29,0.14-0.58,0.28-0.87,0.41c-0.29,0.13-0.52,0.23-0.71,0.29c-0.06,0.03-0.23,0.1-0.5,0.22c-0.27,0.11-0.44,0.19-0.5,0.22
			s-0.16,0.1-0.29,0.19c-0.14,0.1-0.22,0.16-0.25,0.19c-0.03,0-0.04,0.05-0.04,0.14l0,0.05l0.05,0.04c0.06,0.06,0.2,0.16,0.4,0.29
			c0.2,0.13,0.33,0.22,0.4,0.24c0.34,0.24,0.67,0.45,0.98,0.64c0.31,0.19,0.64,0.36,0.98,0.51l3.25,3.05c0,0.03,0.08,0.17,0.24,0.41
			c0.16,0.24,0.29,0.44,0.38,0.59c0,0.03,0.02,0.1,0.07,0.21c0.05,0.11,0.09,0.16,0.12,0.16c0.03,0.06,0.14,0.23,0.31,0.5
			c0.17,0.27,0.28,0.44,0.31,0.5c0.03,0.09,0.1,0.22,0.2,0.39c0.09,0.17,0.19,0.33,0.29,0.48c0.1,0.15,0.18,0.29,0.24,0.43
			c0.06,0.13,0.1,0.22,0.1,0.25c0.03,0.06,0.08,0.22,0.13,0.48s0.08,0.42,0.08,0.48c0,0.03,0.03,0.1,0.1,0.2
			c0.06,0.11,0.1,0.17,0.1,0.21c0,0.03,0.03,0.12,0.08,0.25c0.05,0.13,0.1,0.28,0.15,0.43c0.05,0.15,0.1,0.3,0.15,0.43
			c0.05,0.14,0.07,0.22,0.07,0.25c0.03,0.06,0.11,0.25,0.22,0.57c0.11,0.32,0.19,0.51,0.22,0.57c0,0.06,0.02,0.24,0.04,0.55
			c0.02,0.3,0.04,0.54,0.04,0.69c0,0.12,0,0.3-0.01,0.53c-0.01,0.23-0.02,0.36-0.02,0.39l-0.22,0.42l-1.15,0.03
			c-0.06,0-0.15-0.13-0.26-0.41c-0.12-0.27-0.17-0.46-0.17-0.55c0-0.03-0.01-0.12-0.03-0.25c-0.02-0.14-0.04-0.28-0.08-0.44
			c-0.03-0.15-0.06-0.3-0.08-0.44c-0.02-0.14-0.03-0.22-0.03-0.25c-0.03-0.06-0.08-0.23-0.13-0.5c-0.05-0.28-0.1-0.44-0.13-0.5
			c0-0.06-0.03-0.25-0.08-0.57c-0.05-0.32-0.1-0.51-0.13-0.57c0-0.06-0.04-0.18-0.1-0.34c-0.07-0.17-0.13-0.34-0.2-0.53
			c-0.07-0.18-0.13-0.36-0.2-0.52c-0.07-0.17-0.11-0.3-0.15-0.39c-0.03-0.09-0.09-0.23-0.17-0.41c-0.08-0.18-0.17-0.36-0.27-0.54
			c-0.1-0.18-0.18-0.35-0.24-0.5c-0.07-0.15-0.11-0.24-0.14-0.27c-0.07-0.12-0.22-0.36-0.48-0.7c-0.26-0.35-0.43-0.57-0.52-0.66
			c-0.09-0.12-0.28-0.32-0.54-0.61c-0.27-0.29-0.57-0.58-0.89-0.9c-0.33-0.31-0.64-0.6-0.94-0.85
			C196.45,53.61,196.23,53.43,196.11,53.35z M189.27,48.39c0,0.12,0.02,0.18,0.05,0.18l0.19,0.18c0.03,0.03,0.1,0.07,0.19,0.11
			c0.09,0.04,0.15,0.07,0.19,0.07c0.13,0.06,0.31,0.11,0.56,0.15c0.25,0.04,0.4,0.06,0.46,0.06c0.12,0,0.38-0.03,0.78-0.09
			c0.4-0.05,0.65-0.11,0.78-0.18c0.09-0.03,0.29-0.11,0.59-0.22c0.3-0.12,0.64-0.23,1.01-0.35c0.37-0.12,0.73-0.24,1.1-0.37
			c0.37-0.13,0.64-0.23,0.82-0.29c0.06-0.03,0.21-0.11,0.46-0.22s0.52-0.23,0.82-0.37s0.61-0.26,0.91-0.39
			c0.3-0.13,0.55-0.23,0.73-0.29c0.03,0,0.09-0.03,0.18-0.07c0.09-0.05,0.15-0.09,0.18-0.12c0.06-0.03,0.23-0.14,0.5-0.31
			c0.27-0.18,0.44-0.28,0.5-0.31c0.03,0,0.15-0.06,0.36-0.19c0.09-0.03,0.21-0.11,0.36-0.24c0.15-0.13,0.31-0.25,0.47-0.38
			c0.17-0.13,0.32-0.25,0.45-0.36c0.14-0.11,0.23-0.2,0.29-0.26c0.03-0.03,0.12-0.13,0.27-0.28c0.15-0.16,0.24-0.27,0.27-0.33
			c0.12-0.09,0.32-0.28,0.59-0.54c0.27-0.27,0.56-0.55,0.88-0.85c0.31-0.3,0.61-0.58,0.88-0.85s0.46-0.45,0.59-0.54
			c0.15-0.25,0.3-0.5,0.46-0.75c0.16-0.25,0.32-0.47,0.47-0.66c0-0.03,0.03-0.07,0.09-0.12c0.06-0.05,0.09-0.09,0.09-0.12
			c0.03-0.06,0.12-0.22,0.26-0.47c0.15-0.25,0.25-0.42,0.31-0.51c0.03-0.06,0.07-0.14,0.11-0.23c0.04-0.09,0.07-0.15,0.06-0.19
			c0.03-0.06,0.06-0.19,0.11-0.39c0.04-0.2,0.08-0.4,0.13-0.6c0.04-0.2,0.07-0.39,0.1-0.58c0.03-0.19,0.04-0.31,0.04-0.37
			l-0.01-0.55l-0.01-0.46c-0.03-0.06-0.1-0.22-0.2-0.48s-0.18-0.42-0.24-0.48c-0.06-0.09-0.2-0.23-0.4-0.43s-0.34-0.31-0.4-0.34
			c-0.34-0.02-0.55-0.03-0.64-0.03c-0.09,0-0.23,0.01-0.41,0.03c-0.18,0.02-0.29,0.03-0.32,0.03c-0.03,0-0.19,0.08-0.48,0.24
			c-0.29,0.16-0.51,0.29-0.66,0.38c-0.06,0.03-0.16,0.09-0.29,0.19c-0.14,0.09-0.29,0.19-0.46,0.29s-0.33,0.2-0.48,0.31
			c-0.15,0.11-0.27,0.18-0.36,0.21c-0.03,0.03-0.15,0.14-0.36,0.31c-0.21,0.17-0.34,0.28-0.41,0.31c-0.06,0.03-0.16,0.1-0.29,0.19
			c-0.14,0.1-0.23,0.16-0.3,0.19c0,0.03-0.05,0.07-0.16,0.12c-0.11,0.05-0.18,0.09-0.21,0.12c-0.06,0.06-0.19,0.23-0.38,0.49
			c-0.19,0.27-0.32,0.43-0.38,0.49c-0.03,0.03-0.12,0.11-0.27,0.24c-0.15,0.13-0.32,0.25-0.5,0.38c-0.18,0.13-0.35,0.25-0.5,0.38
			c-0.15,0.13-0.24,0.21-0.27,0.23c-0.03,0-0.07,0.03-0.11,0.1c-0.04,0.06-0.08,0.09-0.11,0.09c-0.03,0.03-0.11,0.11-0.25,0.24
			c-0.13,0.13-0.28,0.25-0.43,0.38c-0.15,0.13-0.29,0.25-0.43,0.38c-0.13,0.12-0.22,0.2-0.25,0.23l-0.54,0.56
			c-0.06,0.06-0.19,0.2-0.4,0.4c-0.21,0.21-0.44,0.42-0.68,0.64c-0.24,0.22-0.46,0.43-0.67,0.64c-0.21,0.21-0.33,0.32-0.36,0.35
			l-3.1,3.25c-0.03,0.03-0.09,0.13-0.18,0.28c-0.09,0.16-0.15,0.25-0.18,0.28c-0.15,0.22-0.3,0.43-0.45,0.63
			c-0.15,0.2-0.25,0.34-0.31,0.4c-0.09,0.19-0.19,0.38-0.31,0.58c-0.12,0.2-0.21,0.34-0.27,0.4l-0.18,0.19
			C189.28,48.2,189.27,48.27,189.27,48.39z"/>
		<path class="st34" d="M207.38,55.83c0.04-0.6,0.16-1.09,0.36-1.45c0.2-0.36,0.39-0.64,0.58-0.84l0.16-0.17
			c0.24-0.12,0.58-0.29,1.02-0.52c0.43-0.23,0.87-0.46,1.3-0.69c0.43-0.23,0.82-0.44,1.16-0.63c0.34-0.19,0.55-0.31,0.63-0.36
			c0.03-0.03,0.16-0.09,0.41-0.17s0.44-0.15,0.57-0.18c0.05-0.03,0.18-0.07,0.37-0.13c0.19-0.06,0.31-0.09,0.37-0.09
			c0.05-0.06,0.25-0.12,0.59-0.2c0.34-0.08,0.58-0.13,0.72-0.16c0.05-0.03,0.21-0.07,0.45-0.11c0.25-0.05,0.39-0.09,0.45-0.12
			c0.03,0,0.09-0.02,0.18-0.04s0.16-0.04,0.18-0.04c0.17,0.02,0.28,0.03,0.33,0.03c0.05,0,0.18,0.02,0.37,0.07
			c0.16,0,0.33,0.07,0.5,0.24c0.05,0.03,0.13,0.12,0.23,0.26s0.18,0.26,0.23,0.34c0,0.03,0.04,0.16,0.13,0.39s0.15,0.42,0.18,0.55
			c0.03,0.06,0.06,0.13,0.09,0.22c0.03,0.1,0.06,0.16,0.09,0.18c-0.03,0.08-0.06,0.28-0.11,0.58c-0.05,0.3-0.07,0.51-0.07,0.62
			c-0.05,0.17-0.1,0.41-0.15,0.72c-0.05,0.32-0.07,0.49-0.07,0.52c0,0.03-0.04,0.13-0.14,0.31c-0.09,0.18-0.15,0.3-0.18,0.35
			c-0.02,0.25-0.05,0.4-0.07,0.46c0,0.05-0.01,0.18-0.03,0.37c0.06,0.14,0.12,0.21,0.17,0.2c0.27-0.03,0.44-0.06,0.49-0.1
			c0.08,0,0.25-0.03,0.49-0.09s0.4-0.09,0.45-0.09c0.14-0.03,0.33-0.07,0.59-0.12c0.26-0.05,0.43-0.08,0.51-0.11l0.08,0.08l0.08,0
			c-0.11,0.11-0.31,0.32-0.61,0.63c-0.29,0.31-0.51,0.49-0.64,0.55c-0.05,0.06-0.19,0.16-0.4,0.32c-0.22,0.16-0.35,0.25-0.41,0.28
			c-0.03,0.03-0.09,0.06-0.18,0.09s-0.17,0.06-0.22,0.09c-0.03-0.03-0.11-0.03-0.25,0.01s-0.22,0.06-0.24,0.09
			c-0.06,0-0.16,0.03-0.31,0.09c-0.15,0.06-0.24,0.09-0.27,0.09c-0.05,0.03-0.18,0.07-0.37,0.13s-0.39,0.13-0.61,0.2
			c-0.22,0.07-0.41,0.14-0.59,0.2s-0.28,0.1-0.31,0.13c-0.05,0.03-0.18,0.1-0.38,0.21c-0.2,0.12-0.33,0.17-0.39,0.18
			c-0.03,0-0.12,0.01-0.29,0.03c-0.16,0.02-0.27,0.04-0.33,0.07c-0.06,0-0.18,0.03-0.37,0.09c-0.19,0.06-0.31,0.09-0.37,0.09
			c-0.05,0.03-0.23,0.07-0.53,0.12c-0.3,0.05-0.48,0.08-0.53,0.11c-0.05,0-0.12,0.02-0.21,0.04s-0.14,0.05-0.16,0.05
			c-0.03,0.03-0.09,0.08-0.18,0.15c-0.09,0.07-0.17,0.12-0.22,0.15c-0.03-0.03-0.14-0.05-0.33-0.07c-0.2-0.02-0.32-0.03-0.37-0.03
			c-0.03,0-0.11-0.01-0.25-0.02c-0.14-0.01-0.29-0.01-0.45-0.01c-0.14,0-0.28,0-0.43-0.01c-0.15-0.01-0.24-0.01-0.27-0.01
			c-0.05,0-0.21-0.04-0.48-0.13c-0.26-0.09-0.44-0.16-0.52-0.21c-0.05,0-0.13-0.02-0.21-0.08c-0.08-0.05-0.13-0.09-0.13-0.12
			l-0.72-0.97c-0.03,0-0.05-0.05-0.06-0.14c-0.02-0.09-0.03-0.17-0.03-0.22c-0.03-0.05-0.05-0.15-0.07-0.29
			c-0.02-0.13-0.03-0.22-0.03-0.25c0-0.08,0-0.19-0.01-0.33c0-0.17,0-0.33,0.01-0.5c0.01-0.17,0.02-0.32,0.03-0.47
			c0.01-0.15,0.01-0.25,0.01-0.31L207.38,55.83z M209.05,56.82c-0.03,0.03-0.03,0.12-0.02,0.27c0.02,0.15,0.05,0.25,0.11,0.3
			c0,0.05,0.02,0.12,0.05,0.21c0.03,0.08,0.05,0.14,0.05,0.16c0.03,0.03,0.08,0.07,0.17,0.12s0.14,0.11,0.17,0.16
			c0.36,0.05,0.58,0.07,0.66,0.07c0.11,0.03,0.26,0.05,0.44,0.07c0.18,0.02,0.28,0.04,0.31,0.04c0.05,0.03,0.19,0.03,0.41,0.01
			c0.22-0.02,0.37-0.03,0.45-0.03c0.03,0,0.12-0.02,0.27-0.05s0.25-0.05,0.31-0.05c0.14,0,0.32-0.03,0.54-0.07s0.44-0.09,0.66-0.14
			c0.22-0.05,0.49-0.12,0.82-0.21c0.03,0,0.12-0.04,0.27-0.11s0.25-0.12,0.3-0.15c0.03-0.03,0.11-0.04,0.25-0.05l0.29-0.01
			c0.03-0.03,0.09-0.06,0.18-0.09c0.09-0.03,0.16-0.04,0.18-0.05c0.05-0.03,0.13-0.08,0.22-0.15c0.09-0.07,0.16-0.12,0.18-0.15
			l0.04-0.09c0-0.03,0-0.05,0.02-0.06c0.01-0.01,0.02-0.04,0.02-0.06c-0.03-0.03-0.05-0.14-0.07-0.33
			c-0.02-0.19-0.03-0.31-0.03-0.37c0.02-0.17,0.04-0.28,0.04-0.33c-0.01-0.19,0.02-0.31,0.07-0.37c0.02-0.03,0.08-0.13,0.16-0.31
			c0.08-0.18,0.12-0.29,0.12-0.35c0-0.03,0.02-0.14,0.07-0.33c0.05-0.19,0.07-0.35,0.07-0.46c0.03-0.08,0.06-0.33,0.11-0.74
			c0-0.05-0.02-0.16-0.05-0.31c-0.03-0.15-0.04-0.24-0.05-0.27s-0.04-0.07-0.13-0.12c-0.08-0.05-0.15-0.08-0.21-0.08
			c-0.11-0.05-0.18-0.08-0.21-0.08l-0.29,0.01c-0.05-0.05-0.15-0.06-0.29-0.04c-0.14,0.03-0.23,0.06-0.29,0.09
			c-0.11,0.03-0.28,0.08-0.51,0.16s-0.47,0.15-0.71,0.22c-0.25,0.08-0.46,0.15-0.65,0.22c-0.19,0.07-0.3,0.12-0.33,0.15
			c-0.03,0-0.1,0.04-0.22,0.11c-0.12,0.07-0.25,0.14-0.39,0.22s-0.26,0.14-0.39,0.21c-0.12,0.07-0.2,0.11-0.22,0.11
			c-0.03,0.03-0.12,0.07-0.27,0.13c-0.15,0.06-0.24,0.1-0.26,0.13c-0.05,0.05-0.19,0.18-0.4,0.38c-0.21,0.2-0.38,0.34-0.48,0.42
			c-0.03,0.03-0.09,0.1-0.18,0.21c-0.09,0.11-0.17,0.2-0.22,0.25c-0.05,0.11-0.17,0.26-0.36,0.44c-0.19,0.18-0.29,0.29-0.32,0.32
			c-0.05,0.11-0.14,0.26-0.26,0.46C209.11,56.68,209.05,56.79,209.05,56.82z"/>
		<path class="st34" d="M234.15,47.5c0.05,0,0.17,0,0.35,0.01s0.29,0.01,0.35,0.01c0.11,0.05,0.18,0.12,0.21,0.2
			s0.07,0.18,0.13,0.29c0.18,0.35,0.24,0.74,0.19,1.17c-0.04,0.43-0.15,0.87-0.32,1.32s-0.37,0.91-0.61,1.35
			c-0.24,0.45-0.46,0.84-0.67,1.17c-0.48,0.64-0.97,1.27-1.46,1.87c-0.49,0.6-0.98,1.22-1.46,1.87v0.12l0,0.08
			c0.03,0.03,0.08,0.06,0.17,0.1c0.08,0.04,0.14,0.06,0.16,0.06l0.49-0.01l0.58-0.01c0.14,0,0.19-0.01,0.16-0.03s0-0.03,0.08-0.06
			c0.14-0.03,0.3-0.1,0.49-0.2c0.19-0.1,0.39-0.18,0.61-0.24c0.05-0.03,0.22-0.1,0.51-0.22s0.46-0.18,0.51-0.18
			c0.6,0.07,1.02,0.17,1.24,0.3c0.22,0.13,0.3,0.28,0.23,0.45c-0.06,0.17-0.22,0.34-0.46,0.53c-0.24,0.18-0.51,0.35-0.79,0.49
			c-0.28,0.15-0.56,0.26-0.81,0.35s-0.43,0.13-0.51,0.13c0.03,0-0.2,0.07-0.7,0.22c-0.11,0.03-0.21,0.06-0.3,0.09
			c-0.1,0.03-0.17,0.05-0.23,0.05c-0.33,0.06-0.59,0.12-0.8,0.16c-0.2,0.04-0.36,0.08-0.47,0.11c-0.03,0-0.16,0-0.39-0.01
			c-0.23-0.01-0.42,0-0.55,0.04c-0.11,0-0.28,0.01-0.5,0.01c-0.22,0-0.34,0.01-0.37,0.01c-0.06,0-0.18,0-0.37,0.01
			c-0.19,0.01-0.3,0.01-0.33,0.01c-0.03,0-0.13-0.02-0.31-0.05s-0.39-0.07-0.62-0.11c-0.23-0.04-0.44-0.07-0.62-0.11
			c-0.18-0.04-0.28-0.06-0.31-0.05c-0.25,0.01-0.48-0.04-0.7-0.15s-0.4-0.15-0.54-0.15l-0.71-0.68c-0.06-0.05-0.2-0.23-0.43-0.54
			s-0.38-0.53-0.47-0.67c-0.03-0.03-0.06-0.09-0.11-0.18c-0.04-0.09-0.07-0.15-0.07-0.18c-0.03-0.03-0.06-0.06-0.11-0.1
			c-0.04-0.04-0.08-0.06-0.11-0.06l-0.25,0.01l-0.25,0.01c-0.14,0.06-0.43,0.13-0.88,0.23c-0.45,0.09-0.8,0.21-1.04,0.35
			c-0.16,0.09-0.32,0.17-0.47,0.26c-0.15,0.09-0.28,0.19-0.38,0.3c-0.03,0-0.09,0.03-0.18,0.09c-0.09,0.06-0.16,0.09-0.18,0.09
			c-0.03,0.03-0.13,0.12-0.32,0.27c-0.19,0.16-0.31,0.25-0.37,0.28c-0.16,0.09-0.38,0.21-0.65,0.37c-0.27,0.16-0.53,0.3-0.77,0.43
			c-0.24,0.13-0.55,0.3-0.93,0.5l-0.37,0.01c-0.54-0.51-0.6-1-0.2-1.48c0-0.03,0.06-0.11,0.18-0.23c0.12-0.13,0.2-0.21,0.22-0.23
			c0.05-0.03,0.2-0.09,0.45-0.17c0.25-0.09,0.39-0.15,0.45-0.18c0.16-0.09,0.45-0.25,0.85-0.49c0.41-0.24,0.74-0.44,1.02-0.58
			c0.11-0.06,0.2-0.1,0.26-0.13c0.07-0.03,0.12-0.06,0.14-0.09c0.05-0.03,0.18-0.12,0.36-0.28c0.19-0.15,0.31-0.25,0.36-0.28
			c0.65-0.23,1.3-0.53,1.96-0.89c0.65-0.36,1.31-0.68,1.99-0.97c0.03-0.03,0.09-0.06,0.18-0.11c0.09-0.05,0.16-0.08,0.18-0.11
			c0.03,0,0.11-0.05,0.24-0.15c0.14-0.1,0.21-0.16,0.24-0.19c0.46-0.23,1.02-0.55,1.67-0.96c0.65-0.41,1.2-0.76,1.66-1.05
			c0.63-0.37,1.24-0.8,1.85-1.28c0.61-0.48,1.26-0.91,1.97-1.28c0.14-0.06,0.33-0.16,0.59-0.3c0.26-0.14,0.4-0.23,0.43-0.26
			c0.03,0,0.13-0.01,0.31-0.03C233.94,47.51,234.07,47.5,234.15,47.5z M225.34,54.79l0,0.16c0.03,0.06,0.12,0.15,0.27,0.28
			s0.25,0.21,0.27,0.24c0.05,0.05,0.18,0.2,0.36,0.45c0.19,0.24,0.3,0.39,0.36,0.45c0.03,0.03,0.08,0.06,0.16,0.1
			c0.09,0.04,0.15,0.06,0.21,0.05l0.45-0.01l0.41-0.01c0.03,0,0.08-0.02,0.16-0.06s0.15-0.08,0.21-0.11
			c0.03-0.03,0.13-0.11,0.3-0.25c0.17-0.14,0.3-0.24,0.38-0.3c0.78-0.65,1.57-1.42,2.38-2.32c0.8-0.9,1.37-1.86,1.7-2.88
			c0.03-0.06,0.06-0.18,0.1-0.38c0.04-0.19,0.05-0.31,0.05-0.37c-0.03,0-0.08,0.01-0.16,0.03s-0.14,0.02-0.16,0.03
			c-0.3,0.01-0.57,0.09-0.82,0.24s-0.49,0.32-0.73,0.49c-0.03,0-0.09,0.03-0.18,0.09c-0.09,0.06-0.15,0.09-0.18,0.09
			c-0.03,0.03-0.13,0.11-0.3,0.26c-0.18,0.14-0.37,0.28-0.57,0.42c-0.2,0.14-0.39,0.28-0.57,0.4c-0.18,0.13-0.28,0.19-0.3,0.19
			c-0.05,0.06-0.14,0.13-0.26,0.21c-0.12,0.09-0.2,0.14-0.22,0.17c-0.46,0.2-0.97,0.45-1.53,0.74c-0.56,0.29-0.98,0.58-1.28,0.89
			c-0.05,0.06-0.15,0.15-0.28,0.28c-0.13,0.13-0.21,0.21-0.24,0.27L225.34,54.79z"/>
		<path class="st34" d="M235.13,56.13c0-0.05,0.05-0.18,0.16-0.37c0.1-0.2,0.17-0.32,0.2-0.38c0-0.03,0.02-0.14,0.05-0.33
			c0.04-0.19,0.07-0.32,0.09-0.37c0.05-0.14,0.14-0.33,0.25-0.58c0.12-0.25,0.21-0.48,0.29-0.71c0.02-0.14,0.06-0.23,0.12-0.29
			c0.02-0.06,0.13-0.2,0.32-0.44s0.31-0.38,0.36-0.44c0.05-0.08,0.14-0.22,0.28-0.4c0.13-0.18,0.21-0.3,0.24-0.36
			c0.11-0.2,0.16-0.31,0.16-0.33c0.13-0.22,0.26-0.4,0.38-0.54c0.12-0.14,0.27-0.32,0.46-0.54c0.05-0.03,0.15-0.14,0.28-0.34
			c0.13-0.2,0.21-0.32,0.24-0.38c0.11-0.14,0.33-0.43,0.68-0.88c0.05-0.06,0.2-0.16,0.45-0.3s0.39-0.23,0.45-0.26
			c0.05-0.06,0.2-0.18,0.43-0.36c0.23-0.18,0.37-0.3,0.42-0.36c0.05-0.06,0.14-0.13,0.26-0.21c0.12-0.09,0.21-0.14,0.26-0.17
			c0.38-0.23,0.79-0.44,1.24-0.63s0.91-0.29,1.37-0.3l0.37-0.01c0.03,0,0.08,0.02,0.16,0.06c0.08,0.04,0.14,0.07,0.17,0.1
			c0.19,0.05,0.32,0.17,0.38,0.36l0.02,0.62l0.01,0.62c0,0.03-0.02,0.11-0.06,0.25c-0.04,0.14-0.08,0.24-0.14,0.29
			c-0.05,0.14-0.13,0.36-0.25,0.66c-0.12,0.31-0.19,0.49-0.21,0.54c-0.05,0.11-0.14,0.28-0.26,0.5c-0.12,0.22-0.21,0.36-0.26,0.42
			c-0.05,0.06-0.17,0.18-0.36,0.36c-0.19,0.18-0.3,0.3-0.32,0.36c-0.03,0.03-0.07,0.09-0.14,0.19c-0.07,0.1-0.14,0.21-0.22,0.33
			c-0.08,0.13-0.15,0.25-0.22,0.36s-0.1,0.18-0.1,0.21c-0.05,0.08-0.15,0.22-0.28,0.4c-0.13,0.18-0.21,0.29-0.24,0.31
			c-0.03,0.03-0.11,0.08-0.26,0.17c-0.15,0.09-0.24,0.14-0.26,0.17c-0.08,0.08-0.22,0.23-0.42,0.44c-0.2,0.21-0.41,0.43-0.64,0.65
			s-0.44,0.44-0.64,0.65c-0.2,0.21-0.34,0.36-0.42,0.44c-0.14,0.06-0.29,0.16-0.47,0.3c-0.18,0.14-0.34,0.28-0.5,0.42
			c-0.08,0.06-0.26,0.22-0.52,0.51c-0.27,0.28-0.44,0.46-0.52,0.55l0,0.08v0.08l0.21,0.2c0.05,0.03,0.17,0.06,0.35,0.1
			s0.3,0.06,0.35,0.05l0.91-0.02c0.11,0,0.32,0.01,0.62,0.03c0.08,0,0.31-0.09,0.67-0.26c0.37-0.17,0.63-0.29,0.79-0.35
			c0.03,0,0.14-0.06,0.32-0.17c0.05,0,0.19-0.02,0.39-0.05c0.21-0.03,0.34-0.06,0.39-0.09c0.41-0.15,0.78-0.33,1.1-0.56
			c0.32-0.23,0.65-0.4,0.98-0.52c0.03,0,0.11-0.06,0.24-0.17c0.13-0.11,0.23-0.18,0.28-0.21c0.08-0.06,0.27-0.16,0.57-0.32
			c0.3-0.16,0.5-0.25,0.61-0.28l0.11,1.19c-0.05,0.03-0.11,0.07-0.16,0.13c-0.05,0.05-0.2,0.18-0.44,0.38
			c-0.22,0.2-0.48,0.41-0.79,0.64s-0.53,0.37-0.67,0.43c-0.3,0.23-0.59,0.39-0.88,0.49c-0.29,0.1-0.7,0.3-1.24,0.58
			c-0.05,0-0.21,0.05-0.47,0.15c-0.26,0.1-0.44,0.16-0.55,0.16c-0.27,0.06-0.61,0.18-1,0.35c-0.39,0.17-0.63,0.28-0.71,0.3
			l-0.45,0.01l-0.58,0.01c-0.17-0.02-0.43-0.05-0.78-0.09c-0.36-0.03-0.57-0.05-0.62-0.04c-0.05-0.03-0.15-0.09-0.29-0.18
			c-0.14-0.09-0.22-0.15-0.25-0.18c-0.05-0.03-0.21-0.06-0.46-0.11s-0.4-0.09-0.46-0.11c-0.06-0.03-0.13-0.06-0.21-0.1
			s-0.13-0.07-0.13-0.1c-0.03,0-0.06-0.04-0.11-0.12c-0.04-0.08-0.07-0.15-0.07-0.2c-0.06-0.13-0.14-0.33-0.24-0.59
			c-0.11-0.26-0.16-0.41-0.16-0.47c-0.04-0.3-0.05-0.48-0.05-0.54C235.1,56.57,235.11,56.4,235.13,56.13z M243.98,47.95
			c-0.12,0.02-0.2,0.03-0.23,0.03c-0.14,0.03-0.26,0.1-0.37,0.21c-0.08,0.06-0.25,0.2-0.5,0.42c-0.26,0.23-0.51,0.42-0.75,0.6
			c-0.13,0.14-0.27,0.23-0.41,0.28c-0.13,0.04-0.27,0.09-0.41,0.15c-0.11,0-0.16,0.06-0.16,0.17c-0.03,0.03-0.07,0.08-0.12,0.15
			c-0.05,0.07-0.13,0.17-0.24,0.31c-0.19,0.22-0.31,0.36-0.36,0.42c-0.05,0.06-0.19,0.21-0.4,0.46c-0.13,0.17-0.29,0.37-0.46,0.59
			c-0.17,0.22-0.34,0.43-0.5,0.63c-0.16,0.2-0.31,0.38-0.44,0.55c-0.13,0.17-0.21,0.27-0.24,0.29c-0.05,0.08-0.14,0.24-0.26,0.48
			c-0.12,0.24-0.24,0.49-0.37,0.75c-0.13,0.27-0.25,0.52-0.36,0.75c-0.1,0.23-0.17,0.41-0.19,0.52l0.08,0l0.12,0
			c0.27-0.2,0.43-0.32,0.49-0.38c0.19-0.11,0.37-0.24,0.54-0.38s0.29-0.22,0.35-0.26c0.13-0.11,0.3-0.24,0.5-0.38
			c0.2-0.14,0.32-0.21,0.35-0.21c0.08-0.08,0.21-0.22,0.4-0.4c0.19-0.18,0.4-0.38,0.62-0.59c0.23-0.21,0.44-0.41,0.63-0.59
			c0.19-0.18,0.32-0.31,0.4-0.4c0.03-0.03,0.1-0.11,0.22-0.25s0.25-0.29,0.4-0.46c0.15-0.17,0.27-0.32,0.38-0.46
			c0.11-0.14,0.17-0.24,0.2-0.29c0.03-0.03,0.12-0.11,0.26-0.25c0.15-0.14,0.23-0.22,0.26-0.26c0.08-0.14,0.21-0.37,0.38-0.69
			c0.17-0.32,0.27-0.51,0.29-0.56c0.03-0.08,0.06-0.25,0.09-0.5c0.04-0.25,0.05-0.4,0.05-0.46
			C244.19,47.93,244.1,47.94,243.98,47.95z"/>
		<path class="st34" d="M248.97,54.71c-0.08,0.04-0.15,0.08-0.2,0.11c-0.24,0.23-0.44,0.41-0.58,0.55c-0.15,0.14-0.29,0.27-0.42,0.4
			s-0.23,0.22-0.28,0.27c-0.08,0.03-0.2,0.1-0.35,0.22c-0.15,0.11-0.3,0.23-0.46,0.36c-0.16,0.13-0.31,0.24-0.45,0.34
			c-0.14,0.1-0.24,0.16-0.32,0.19c-0.08,0.06-0.21,0.13-0.39,0.23s-0.35,0.2-0.53,0.28s-0.33,0.17-0.47,0.24
			c-0.13,0.07-0.22,0.12-0.24,0.15c-0.16,0.09-0.39,0.17-0.68,0.24c-0.29,0.07-0.5-0.02-0.64-0.29l0-0.17
			c-0.01-0.27,0.02-0.51,0.09-0.7c0.07-0.19,0.39-0.46,0.99-0.8c0.35-0.2,0.7-0.42,1.05-0.64c0.35-0.23,0.71-0.48,1.09-0.75
			c0.38-0.27,0.8-0.58,1.25-0.91c0.46-0.34,0.98-0.75,1.58-1.23c0.03-0.03,0.15-0.13,0.36-0.32c0.21-0.18,0.38-0.32,0.48-0.4
			c0.03-0.03,0.09-0.09,0.2-0.19c0.11-0.1,0.23-0.2,0.37-0.32c0.13-0.11,0.26-0.22,0.38-0.34c0.12-0.11,0.21-0.2,0.26-0.25
			c0.11,0,0.16-0.06,0.16-0.17c0.21-0.28,0.42-0.57,0.62-0.88c0.2-0.3,0.39-0.61,0.57-0.92c0.05-0.05,0.14-0.2,0.28-0.44
			c0.13-0.24,0.21-0.38,0.24-0.44c0.05-0.08,0.16-0.26,0.34-0.54s0.29-0.46,0.34-0.54c0.03-0.03,0.11-0.14,0.26-0.33
			c0.15-0.2,0.23-0.32,0.26-0.38c0.05-0.06,0.17-0.23,0.34-0.52c0.17-0.29,0.28-0.47,0.34-0.52c0.03-0.03,0.08-0.11,0.16-0.23
			s0.16-0.26,0.26-0.4c0.09-0.14,0.18-0.27,0.26-0.4s0.13-0.2,0.16-0.23c0.03-0.05,0.09-0.15,0.18-0.29
			c0.09-0.14,0.15-0.22,0.18-0.25c0.05-0.06,0.19-0.22,0.4-0.48c0.21-0.27,0.36-0.47,0.44-0.61c0.03,0,0.06-0.03,0.1-0.08
			c0.04-0.05,0.07-0.08,0.1-0.08c0.08-0.14,0.21-0.34,0.38-0.61c0.17-0.26,0.27-0.42,0.3-0.48c0-0.03-0.02-0.09-0.05-0.19
			c-0.03-0.1-0.04-0.16-0.04-0.18c-0.06,0-0.16,0.01-0.31,0.03s-0.25,0.03-0.31,0.03s-0.15-0.02-0.29-0.08
			c-0.14-0.05-0.22-0.08-0.25-0.08c-0.05-0.03-0.21-0.06-0.46-0.09c-0.25-0.04-0.4-0.06-0.45-0.09c-0.08-0.03-0.26-0.08-0.54-0.15
			c-0.28-0.08-0.44-0.13-0.5-0.15c-0.03-0.03-0.06-0.06-0.11-0.1c-0.04-0.04-0.06-0.07-0.06-0.1c-0.05-0.03-0.1-0.08-0.15-0.16
			c-0.04-0.08-0.06-0.13-0.06-0.16l-0.01-0.29l-0.01-0.25c0.03-0.03,0.08-0.06,0.16-0.11c0.08-0.04,0.15-0.06,0.2-0.06l4.9-0.12
			c0.03,0,0.13-0.09,0.3-0.28c0.17-0.18,0.31-0.33,0.42-0.44c0.13-0.14,0.34-0.38,0.62-0.73c0.28-0.35,0.53-0.64,0.74-0.86
			c0.08-0.11,0.14-0.2,0.2-0.25s0.09-0.1,0.12-0.13c0.05-0.05,0.17-0.21,0.36-0.46s0.29-0.4,0.32-0.46c0.05-0.08,0.14-0.2,0.26-0.33
			c0.12-0.14,0.25-0.29,0.38-0.44c0.13-0.16,0.25-0.29,0.36-0.42c0.11-0.13,0.17-0.2,0.2-0.23l1.37-1.43c0.03,0,0.07-0.01,0.14-0.02
			c0.07-0.01,0.12-0.02,0.14-0.02c0.03,0,0.11,0.01,0.25,0.04c0.05,0.03,0.15,0.11,0.29,0.24c0.14,0.13,0.23,0.23,0.25,0.28
			c0.03,0.11,0.04,0.19,0.05,0.25c0,0.03-0.01,0.08-0.02,0.14c-0.01,0.07-0.02,0.12-0.02,0.14c-0.02,0.06-0.07,0.22-0.15,0.5
			c-0.07,0.28-0.13,0.46-0.15,0.54c-0.03,0.03-0.08,0.11-0.16,0.25c-0.08,0.14-0.15,0.24-0.2,0.29c-0.29,0.47-0.6,0.93-0.92,1.36
			c-0.32,0.43-0.64,0.87-0.96,1.32c-0.03,0.05-0.08,0.15-0.16,0.27c-0.08,0.13-0.15,0.22-0.2,0.27c-0.03,0.06-0.06,0.13-0.1,0.21
			c-0.04,0.08-0.06,0.14-0.06,0.16c0,0.11,0.06,0.17,0.17,0.16l9.18-0.21l0.34,0.32c0.06,0.11,0.19,0.34,0.39,0.69l-0.2,0.21
			c-0.3,0.04-0.57,0.07-0.8,0.1c-0.23,0.03-0.46,0.06-0.7,0.08c-0.23,0.02-0.43,0.03-0.6,0.04l-2.26,0.05
			c-0.05,0-0.21,0.03-0.45,0.09c-0.25,0.06-0.4,0.09-0.45,0.1l-0.45,0.01l-0.78,0.02l-0.78,0.02l-0.45,0.01
			c-0.14,0-0.36,0.02-0.68,0.06c-0.32,0.04-0.64,0.06-0.99,0.08c-0.34,0.02-0.67,0.05-0.98,0.09c-0.32,0.04-0.54,0.05-0.68,0.06
			l-0.32,0.34c-0.05,0.08-0.19,0.29-0.4,0.61c-0.21,0.32-0.41,0.62-0.6,0.9c-0.08,0.17-0.19,0.31-0.32,0.42
			c-0.14,0.11-0.27,0.25-0.4,0.42c-0.03,0.03-0.11,0.14-0.24,0.33c-0.13,0.2-0.22,0.32-0.28,0.38l-1.21,1.26
			c-0.11,0.14-0.23,0.31-0.38,0.52s-0.27,0.37-0.38,0.48c-0.16,0.17-0.31,0.36-0.46,0.56c-0.15,0.21-0.25,0.34-0.3,0.4
			c-0.11,0.11-0.3,0.32-0.58,0.61c-0.28,0.29-0.58,0.6-0.88,0.9c-0.31,0.31-0.6,0.61-0.88,0.91c-0.28,0.3-0.48,0.5-0.58,0.61
			c-0.03,0.06-0.08,0.15-0.16,0.27s-0.13,0.22-0.16,0.27c-0.05,0.06-0.17,0.2-0.36,0.44s-0.29,0.38-0.32,0.44
			c-0.05,0.11-0.14,0.31-0.28,0.6c-0.13,0.29-0.27,0.61-0.43,0.94c-0.16,0.33-0.31,0.65-0.45,0.96c-0.14,0.31-0.24,0.51-0.3,0.63
			c-0.15,0.42-0.25,0.84-0.3,1.28c-0.05,0.44,0.02,0.69,0.18,0.74c0.03,0.03,0.18,0.09,0.46,0.2c0.28,0.1,0.72,0.14,1.32,0.11
			c0.6-0.03,1.3-0.23,2.09-0.61c0.19-0.03,0.42-0.13,0.67-0.29c0.26-0.16,0.51-0.29,0.77-0.39c0.26-0.1,0.51-0.13,0.74-0.08
			c0.23,0.05,0.44,0.25,0.61,0.6c0.03,0.03,0.02,0.06-0.04,0.11c-0.05,0.04-0.09,0.08-0.12,0.11c-0.05,0-0.22,0.12-0.48,0.36
			c-0.27,0.24-0.47,0.4-0.61,0.49c-0.03,0-0.09,0.02-0.18,0.07c-0.1,0.04-0.14,0.08-0.14,0.1c-0.16,0.06-0.43,0.21-0.81,0.45
			s-0.73,0.41-1.06,0.5c-0.44,0.15-0.8,0.25-1.1,0.31c-0.3,0.06-0.59,0.1-0.86,0.12c-0.27,0.02-0.54,0.03-0.78,0.02
			c-0.25-0.01-0.52-0.01-0.82,0c-0.05,0-0.13-0.03-0.21-0.08c-0.09-0.05-0.15-0.07-0.21-0.04c-0.25-0.13-0.48-0.25-0.69-0.35
			c-0.21-0.11-0.38-0.25-0.53-0.44c-0.06-0.05-0.12-0.14-0.19-0.26c-0.07-0.12-0.11-0.2-0.11-0.22c-0.07-0.47-0.04-0.97,0.07-1.51
			c0.11-0.54,0.19-1.01,0.23-1.43C249.11,54.64,249.05,54.67,248.97,54.71z M258.02,43.53c0,0.11,0.03,0.14,0.09,0.08
			c0.05,0,0.08-0.02,0.08-0.04c0-0.03-0.03-0.07-0.08-0.12C258.04,43.39,258.02,43.42,258.02,43.53z M259.65,41.37
			c-0.08,0.04-0.15,0.08-0.21,0.11l-0.32,0.34c-0.08,0.14-0.2,0.34-0.38,0.61c-0.17,0.27-0.27,0.43-0.3,0.48
			c-0.03,0.08-0.04,0.14-0.04,0.17s0.01,0.06,0.02,0.1c0.01,0.04,0.02,0.08,0.02,0.1c0.02-0.05,0.08-0.12,0.16-0.19
			c0.08-0.07,0.13-0.13,0.16-0.19c0.11-0.14,0.25-0.33,0.42-0.56c0.17-0.24,0.31-0.43,0.42-0.59c0.11-0.15,0.17-0.24,0.2-0.27
			l0-0.17C259.79,41.3,259.73,41.32,259.65,41.37z M260.1,40.97c0,0.14,0.03,0.18,0.09,0.12c0.05-0.06,0.08-0.11,0.08-0.17
			c0-0.05-0.03-0.11-0.09-0.16C260.12,40.71,260.09,40.77,260.1,40.97z"/>
		<path class="st34" d="M261.15,54.42c-0.08,0.04-0.15,0.08-0.2,0.11c-0.24,0.22-0.44,0.41-0.58,0.55s-0.29,0.27-0.42,0.4
			c-0.13,0.13-0.23,0.22-0.28,0.27c-0.08,0.03-0.2,0.1-0.34,0.22c-0.15,0.11-0.3,0.23-0.46,0.36c-0.16,0.13-0.31,0.24-0.45,0.34
			c-0.14,0.1-0.24,0.16-0.32,0.19c-0.08,0.06-0.21,0.13-0.39,0.23s-0.35,0.2-0.53,0.28c-0.18,0.09-0.33,0.17-0.47,0.24
			c-0.14,0.07-0.22,0.12-0.24,0.15c-0.16,0.09-0.39,0.17-0.67,0.24c-0.29,0.08-0.5-0.02-0.64-0.29l0-0.17
			c-0.01-0.27,0.02-0.51,0.09-0.7c0.07-0.19,0.39-0.46,0.99-0.8c0.35-0.2,0.71-0.42,1.06-0.64c0.35-0.23,0.71-0.48,1.09-0.75
			c0.38-0.27,0.8-0.58,1.25-0.91c0.46-0.34,0.98-0.75,1.58-1.23c0.03-0.03,0.15-0.13,0.36-0.32c0.21-0.18,0.38-0.32,0.48-0.4
			c0.03-0.03,0.09-0.09,0.2-0.19c0.11-0.1,0.23-0.2,0.37-0.32s0.26-0.22,0.38-0.34c0.12-0.11,0.21-0.2,0.26-0.25
			c0.11,0,0.16-0.06,0.16-0.17c0.21-0.28,0.42-0.57,0.62-0.88c0.2-0.3,0.39-0.61,0.58-0.92c0.05-0.06,0.14-0.2,0.28-0.44
			c0.13-0.24,0.21-0.38,0.24-0.44c0.05-0.08,0.16-0.26,0.34-0.54s0.29-0.46,0.34-0.54c0.03-0.03,0.11-0.14,0.26-0.33
			c0.15-0.2,0.23-0.32,0.26-0.38c0.05-0.06,0.16-0.23,0.34-0.52c0.17-0.29,0.28-0.47,0.34-0.53c0.03-0.03,0.08-0.1,0.16-0.23
			c0.08-0.13,0.16-0.26,0.26-0.4c0.09-0.14,0.18-0.27,0.26-0.4c0.08-0.13,0.13-0.2,0.16-0.23c0.03-0.05,0.09-0.15,0.18-0.29
			c0.09-0.14,0.15-0.22,0.18-0.25c0.05-0.06,0.19-0.22,0.4-0.48c0.21-0.27,0.36-0.47,0.44-0.61c0.03,0,0.06-0.03,0.1-0.08
			c0.04-0.05,0.07-0.08,0.1-0.08c0.08-0.14,0.21-0.34,0.38-0.61c0.17-0.26,0.27-0.42,0.29-0.48c0-0.03-0.02-0.09-0.04-0.18
			c-0.03-0.1-0.04-0.16-0.04-0.19c-0.06,0-0.16,0.01-0.31,0.03s-0.25,0.03-0.31,0.03s-0.15-0.02-0.29-0.08
			c-0.14-0.05-0.22-0.08-0.25-0.08c-0.05-0.03-0.21-0.06-0.46-0.09c-0.25-0.04-0.4-0.07-0.46-0.09c-0.08-0.03-0.26-0.08-0.54-0.15
			c-0.28-0.08-0.44-0.13-0.5-0.15c-0.03-0.03-0.06-0.06-0.11-0.1c-0.04-0.04-0.06-0.07-0.06-0.1c-0.06-0.03-0.11-0.08-0.15-0.16
			c-0.04-0.08-0.07-0.13-0.07-0.16l-0.01-0.29l-0.01-0.25c0.03-0.03,0.08-0.06,0.16-0.11c0.08-0.04,0.15-0.06,0.21-0.07l4.9-0.11
			c0.03,0,0.13-0.09,0.3-0.28c0.17-0.18,0.31-0.33,0.42-0.44c0.13-0.14,0.34-0.38,0.62-0.73c0.28-0.35,0.53-0.64,0.74-0.86
			c0.08-0.11,0.14-0.2,0.2-0.25c0.05-0.06,0.09-0.1,0.12-0.13c0.05-0.06,0.17-0.21,0.36-0.46c0.19-0.25,0.29-0.4,0.32-0.46
			c0.05-0.08,0.14-0.2,0.26-0.33c0.12-0.14,0.25-0.29,0.38-0.44c0.13-0.16,0.25-0.29,0.36-0.42c0.11-0.13,0.17-0.2,0.2-0.23
			l1.37-1.43c0.03,0,0.07-0.01,0.14-0.02c0.07-0.01,0.12-0.02,0.14-0.02c0.03,0,0.11,0.01,0.25,0.04c0.05,0.03,0.15,0.11,0.29,0.24
			c0.14,0.13,0.22,0.23,0.25,0.28c0.03,0.11,0.04,0.19,0.05,0.25c0,0.03-0.01,0.08-0.02,0.14c-0.01,0.07-0.02,0.12-0.02,0.14
			c-0.03,0.06-0.08,0.22-0.15,0.5c-0.08,0.28-0.13,0.46-0.15,0.54c-0.03,0.03-0.08,0.11-0.16,0.25c-0.08,0.14-0.14,0.24-0.2,0.29
			c-0.29,0.47-0.59,0.93-0.91,1.36c-0.32,0.43-0.64,0.87-0.96,1.32c-0.03,0.05-0.08,0.15-0.16,0.27c-0.08,0.13-0.15,0.22-0.2,0.27
			c-0.03,0.06-0.06,0.13-0.1,0.21c-0.04,0.08-0.06,0.14-0.06,0.16c0,0.11,0.06,0.17,0.17,0.16l9.18-0.21l0.34,0.32
			c0.06,0.11,0.19,0.34,0.39,0.69l-0.2,0.21c-0.3,0.04-0.57,0.07-0.8,0.1s-0.46,0.06-0.7,0.08c-0.23,0.02-0.43,0.03-0.6,0.04
			l-2.26,0.05c-0.05,0-0.21,0.03-0.45,0.09c-0.25,0.06-0.4,0.09-0.45,0.1l-0.45,0.01l-0.78,0.02l-0.78,0.02l-0.45,0.01
			c-0.14,0-0.36,0.02-0.68,0.06c-0.32,0.04-0.64,0.06-0.99,0.08c-0.34,0.02-0.67,0.05-0.99,0.09s-0.54,0.05-0.68,0.06l-0.32,0.34
			c-0.05,0.08-0.19,0.29-0.4,0.61c-0.21,0.32-0.41,0.62-0.6,0.9c-0.08,0.17-0.19,0.31-0.32,0.42c-0.14,0.11-0.27,0.25-0.4,0.42
			c-0.03,0.03-0.11,0.14-0.24,0.33c-0.13,0.2-0.22,0.32-0.28,0.38l-1.21,1.26c-0.11,0.14-0.23,0.31-0.38,0.52
			c-0.15,0.21-0.27,0.37-0.38,0.48c-0.16,0.17-0.31,0.36-0.46,0.56c-0.15,0.21-0.25,0.34-0.3,0.4c-0.11,0.11-0.3,0.32-0.58,0.61
			c-0.28,0.3-0.58,0.6-0.88,0.91c-0.31,0.31-0.6,0.61-0.88,0.91c-0.28,0.3-0.48,0.5-0.58,0.61c-0.03,0.06-0.08,0.15-0.16,0.27
			s-0.13,0.22-0.16,0.27c-0.05,0.06-0.17,0.2-0.36,0.44s-0.29,0.38-0.32,0.44c-0.05,0.11-0.14,0.31-0.28,0.6
			c-0.13,0.29-0.27,0.61-0.43,0.94s-0.31,0.65-0.45,0.96c-0.14,0.31-0.24,0.51-0.29,0.63c-0.15,0.42-0.25,0.84-0.3,1.28
			c-0.04,0.44,0.02,0.69,0.18,0.74c0.03,0.03,0.18,0.09,0.46,0.19c0.28,0.1,0.72,0.14,1.32,0.12c0.6-0.03,1.3-0.23,2.09-0.61
			c0.19-0.03,0.42-0.13,0.67-0.28c0.26-0.16,0.52-0.29,0.77-0.39c0.26-0.1,0.51-0.13,0.74-0.08c0.23,0.05,0.44,0.25,0.61,0.6
			c0.03,0.03,0.02,0.06-0.04,0.1c-0.05,0.04-0.09,0.08-0.12,0.11c-0.05,0-0.22,0.12-0.48,0.36c-0.27,0.24-0.47,0.4-0.61,0.49
			c-0.03,0-0.09,0.02-0.18,0.07c-0.1,0.04-0.14,0.08-0.14,0.11c-0.16,0.06-0.43,0.21-0.81,0.45c-0.38,0.24-0.73,0.41-1.06,0.5
			c-0.44,0.15-0.8,0.25-1.1,0.31c-0.3,0.06-0.59,0.1-0.86,0.12c-0.28,0.02-0.54,0.03-0.78,0.02s-0.52-0.01-0.82,0
			c-0.05,0-0.13-0.03-0.21-0.08c-0.09-0.05-0.15-0.07-0.21-0.04c-0.25-0.13-0.48-0.25-0.69-0.35c-0.21-0.11-0.38-0.25-0.53-0.44
			c-0.06-0.05-0.12-0.14-0.19-0.26s-0.11-0.2-0.11-0.22c-0.07-0.47-0.04-0.97,0.07-1.51c0.11-0.54,0.19-1.01,0.23-1.43
			C261.29,54.36,261.23,54.38,261.15,54.42z M270.2,43.24c0,0.11,0.03,0.14,0.08,0.08c0.05,0,0.08-0.02,0.08-0.04
			c0-0.03-0.03-0.07-0.08-0.12C270.22,43.1,270.19,43.13,270.2,43.24z M271.83,41.08c-0.08,0.04-0.15,0.08-0.21,0.11l-0.32,0.34
			c-0.08,0.14-0.21,0.34-0.38,0.61c-0.17,0.27-0.27,0.43-0.3,0.48c-0.02,0.08-0.04,0.14-0.04,0.17c0,0.03,0.01,0.06,0.02,0.1
			s0.02,0.08,0.02,0.1c0.03-0.05,0.08-0.12,0.16-0.19s0.13-0.13,0.16-0.19c0.11-0.14,0.24-0.33,0.42-0.56
			c0.17-0.24,0.31-0.43,0.42-0.59s0.17-0.24,0.2-0.27l0-0.17C271.97,41.02,271.91,41.04,271.83,41.08z M272.28,40.68
			c0,0.14,0.03,0.18,0.09,0.12c0.05-0.06,0.08-0.11,0.08-0.17c0-0.05-0.03-0.11-0.09-0.16C272.3,40.42,272.27,40.49,272.28,40.68z"
			/>
		<path class="st34" d="M269.45,55.32c0-0.05,0.05-0.18,0.16-0.38c0.11-0.19,0.17-0.32,0.2-0.38c0-0.03,0.02-0.14,0.05-0.33
			c0.04-0.19,0.07-0.32,0.09-0.38c0.05-0.14,0.14-0.33,0.25-0.58c0.12-0.25,0.22-0.48,0.29-0.71c0.02-0.14,0.06-0.23,0.12-0.29
			c0.03-0.05,0.13-0.2,0.32-0.44c0.19-0.24,0.3-0.38,0.36-0.44c0.05-0.08,0.14-0.22,0.28-0.4c0.13-0.18,0.21-0.3,0.24-0.36
			c0.11-0.2,0.16-0.31,0.16-0.33c0.13-0.22,0.26-0.4,0.38-0.54c0.12-0.14,0.28-0.32,0.46-0.55c0.05-0.03,0.14-0.14,0.28-0.34
			c0.13-0.19,0.21-0.32,0.24-0.38c0.11-0.14,0.33-0.43,0.68-0.88c0.05-0.06,0.2-0.15,0.45-0.3c0.25-0.14,0.39-0.23,0.45-0.26
			c0.05-0.05,0.2-0.17,0.42-0.36c0.23-0.18,0.37-0.3,0.43-0.36c0.05-0.06,0.14-0.13,0.26-0.21c0.12-0.09,0.21-0.14,0.27-0.17
			c0.38-0.23,0.79-0.44,1.24-0.63c0.45-0.19,0.91-0.29,1.37-0.3l0.37-0.01c0.03,0,0.08,0.02,0.17,0.06c0.08,0.04,0.14,0.07,0.17,0.1
			c0.19,0.05,0.32,0.17,0.38,0.36l0.01,0.62L280,46.8c0,0.03-0.02,0.11-0.05,0.25c-0.04,0.14-0.09,0.24-0.14,0.29
			c-0.05,0.14-0.13,0.36-0.25,0.67s-0.19,0.48-0.21,0.54c-0.05,0.11-0.14,0.28-0.25,0.5c-0.12,0.22-0.21,0.36-0.26,0.42
			c-0.05,0.05-0.17,0.18-0.36,0.36c-0.19,0.18-0.29,0.3-0.32,0.36c-0.03,0.03-0.07,0.09-0.14,0.19s-0.14,0.21-0.22,0.33
			c-0.08,0.13-0.15,0.25-0.22,0.36c-0.07,0.11-0.1,0.18-0.1,0.21c-0.05,0.08-0.14,0.21-0.28,0.4c-0.13,0.18-0.21,0.29-0.24,0.31
			c-0.03,0.03-0.12,0.08-0.26,0.17c-0.15,0.09-0.24,0.14-0.26,0.17c-0.08,0.08-0.22,0.23-0.42,0.44c-0.2,0.21-0.42,0.43-0.64,0.65
			c-0.23,0.22-0.44,0.44-0.64,0.65c-0.2,0.21-0.34,0.36-0.42,0.45c-0.14,0.06-0.29,0.16-0.47,0.3c-0.17,0.14-0.34,0.28-0.5,0.42
			c-0.08,0.06-0.26,0.23-0.52,0.51c-0.27,0.28-0.44,0.46-0.52,0.55l0,0.08l0,0.08l0.21,0.2c0.06,0.03,0.17,0.06,0.35,0.1
			c0.18,0.04,0.29,0.05,0.35,0.05l0.9-0.02c0.11,0,0.32,0.01,0.62,0.03c0.08,0,0.31-0.09,0.67-0.26c0.37-0.17,0.63-0.29,0.79-0.35
			c0.03,0,0.14-0.06,0.33-0.17c0.05,0,0.18-0.02,0.39-0.05c0.21-0.03,0.33-0.06,0.39-0.09c0.41-0.15,0.77-0.33,1.1-0.56
			c0.32-0.23,0.65-0.4,0.98-0.52c0.03,0,0.11-0.06,0.24-0.17s0.23-0.18,0.28-0.21c0.08-0.06,0.27-0.16,0.57-0.32
			c0.3-0.16,0.5-0.25,0.61-0.28l0.11,1.19c-0.05,0.03-0.11,0.07-0.16,0.13c-0.05,0.06-0.2,0.19-0.45,0.38
			c-0.21,0.2-0.48,0.41-0.79,0.63c-0.31,0.23-0.53,0.37-0.67,0.43c-0.3,0.23-0.59,0.39-0.87,0.49c-0.29,0.1-0.7,0.3-1.24,0.58
			c-0.05,0-0.21,0.05-0.47,0.16c-0.26,0.1-0.44,0.15-0.55,0.16c-0.27,0.06-0.61,0.18-1,0.35c-0.39,0.17-0.63,0.28-0.71,0.3
			l-0.45,0.01l-0.58,0.01c-0.17-0.02-0.43-0.05-0.79-0.08c-0.36-0.03-0.56-0.05-0.62-0.05c-0.06-0.03-0.15-0.09-0.29-0.18
			c-0.14-0.09-0.22-0.15-0.25-0.18c-0.06-0.03-0.21-0.06-0.46-0.11c-0.25-0.05-0.4-0.09-0.46-0.11c-0.05-0.03-0.13-0.06-0.21-0.1
			c-0.08-0.04-0.13-0.07-0.13-0.1c-0.03,0-0.06-0.04-0.11-0.12c-0.04-0.08-0.07-0.15-0.07-0.21c-0.06-0.13-0.14-0.33-0.24-0.59
			c-0.1-0.26-0.15-0.41-0.16-0.47c-0.03-0.3-0.05-0.48-0.05-0.54C269.42,55.76,269.43,55.6,269.45,55.32z M278.3,47.15
			c-0.13,0.02-0.2,0.03-0.23,0.03c-0.14,0.03-0.26,0.1-0.37,0.21c-0.08,0.06-0.25,0.2-0.5,0.42c-0.26,0.22-0.5,0.42-0.75,0.59
			c-0.14,0.14-0.27,0.23-0.41,0.28s-0.27,0.09-0.41,0.15c-0.11,0-0.16,0.06-0.16,0.17c-0.03,0.03-0.07,0.08-0.12,0.15
			c-0.05,0.07-0.13,0.17-0.24,0.31c-0.19,0.22-0.31,0.36-0.36,0.42c-0.05,0.06-0.19,0.21-0.4,0.46c-0.13,0.17-0.29,0.36-0.46,0.59
			c-0.17,0.22-0.34,0.44-0.5,0.63c-0.16,0.2-0.31,0.38-0.44,0.55c-0.13,0.17-0.21,0.27-0.24,0.29c-0.05,0.08-0.14,0.24-0.26,0.48
			c-0.12,0.24-0.24,0.49-0.38,0.75c-0.13,0.26-0.25,0.52-0.35,0.75c-0.1,0.24-0.17,0.41-0.19,0.52l0.08,0l0.13,0
			c0.27-0.2,0.43-0.32,0.48-0.38c0.19-0.11,0.37-0.24,0.55-0.38c0.18-0.14,0.29-0.23,0.34-0.26c0.13-0.11,0.3-0.24,0.51-0.38
			c0.2-0.14,0.32-0.21,0.35-0.21c0.08-0.08,0.21-0.22,0.4-0.4c0.19-0.18,0.39-0.38,0.62-0.59c0.23-0.21,0.44-0.41,0.63-0.59
			c0.19-0.18,0.32-0.32,0.4-0.4c0.03-0.03,0.1-0.11,0.22-0.25c0.12-0.14,0.25-0.29,0.4-0.46c0.15-0.17,0.28-0.32,0.38-0.46
			c0.11-0.14,0.17-0.24,0.2-0.29c0.03-0.03,0.11-0.11,0.26-0.25c0.15-0.14,0.23-0.22,0.26-0.25c0.08-0.14,0.2-0.37,0.38-0.69
			c0.17-0.32,0.27-0.51,0.29-0.56c0.03-0.08,0.06-0.25,0.09-0.5c0.04-0.25,0.05-0.4,0.05-0.46
			C278.51,47.12,278.42,47.13,278.3,47.15z"/>
		<path class="st34" d="M298.84,56.64c0-0.08,0.01-0.13,0.04-0.13c0-0.11,0.01-0.32,0.05-0.64c0.03-0.32,0.06-0.52,0.09-0.6
			c0-0.05,0.02-0.15,0.08-0.29c0.05-0.14,0.08-0.22,0.08-0.25s0.01-0.1,0.04-0.23c0.03-0.12,0.04-0.25,0.05-0.39
			c0.01-0.14,0.02-0.27,0.03-0.39c0.01-0.12,0.02-0.2,0.02-0.23s0.03-0.12,0.1-0.27s0.13-0.33,0.19-0.54
			c0.06-0.21,0.13-0.42,0.19-0.62c0.06-0.21,0.12-0.38,0.17-0.52c0.05-0.09,0.12-0.24,0.2-0.46c0.08-0.22,0.13-0.36,0.15-0.42
			c0.05-0.08,0.12-0.22,0.2-0.4c0.08-0.18,0.13-0.28,0.16-0.31c0.02-0.05,0.08-0.13,0.16-0.21s0.13-0.14,0.16-0.17
			c0.05-0.05,0.2-0.13,0.43-0.21s0.38-0.14,0.43-0.18c0.08-0.14,0.21-0.39,0.39-0.75c0.18-0.36,0.37-0.75,0.57-1.17
			c0.2-0.42,0.38-0.81,0.55-1.19c0.17-0.37,0.28-0.64,0.33-0.81c0.03-0.03,0.07-0.14,0.14-0.35c0.06-0.21,0.14-0.44,0.23-0.71
			c0.09-0.26,0.18-0.53,0.27-0.79c0.09-0.27,0.16-0.46,0.21-0.6c0-0.05,0.02-0.17,0.07-0.35s0.1-0.37,0.15-0.56
			c0.05-0.19,0.1-0.37,0.15-0.54c0.05-0.17,0.09-0.28,0.12-0.33c0.03-0.11,0.08-0.29,0.17-0.54c0.09-0.25,0.19-0.52,0.29-0.81
			c0.1-0.29,0.2-0.56,0.29-0.81c0.09-0.25,0.16-0.42,0.21-0.5c0.05-0.08,0.17-0.22,0.34-0.4c0.17-0.18,0.29-0.29,0.34-0.32
			c0.03-0.03,0.08-0.04,0.16-0.04s0.15,0,0.21-0.01c0.05,0,0.13,0,0.21,0s0.12,0.01,0.13,0.04c0.03,0,0.06,0.04,0.11,0.12
			c0.04,0.08,0.08,0.15,0.11,0.2l0.01,0.29l0.01,0.24c0,0.03-0.03,0.11-0.08,0.25s-0.1,0.29-0.15,0.46c-0.05,0.16-0.1,0.33-0.15,0.5
			c-0.05,0.16-0.09,0.29-0.11,0.37c-0.03,0.06-0.09,0.21-0.18,0.46c-0.09,0.25-0.15,0.4-0.17,0.46c-0.03,0.05-0.08,0.23-0.15,0.52
			c-0.08,0.29-0.13,0.46-0.15,0.52c0,0.03-0.02,0.09-0.08,0.19c-0.05,0.1-0.08,0.16-0.08,0.19c-0.29,0.64-0.51,1.29-0.67,1.95
			c-0.16,0.66-0.39,1.31-0.68,1.95c-0.03,0.06-0.08,0.2-0.18,0.44c-0.09,0.23-0.19,0.48-0.31,0.73c-0.12,0.25-0.22,0.49-0.31,0.73
			c-0.09,0.24-0.15,0.38-0.17,0.44c-0.03,0.03-0.06,0.11-0.1,0.25c-0.04,0.14-0.07,0.22-0.1,0.25c0,0.03-0.03,0.1-0.08,0.23
			c-0.05,0.13-0.1,0.26-0.16,0.39c-0.05,0.14-0.1,0.27-0.15,0.4c-0.05,0.12-0.08,0.2-0.08,0.23c-0.03,0.05-0.06,0.15-0.1,0.29
			c-0.04,0.14-0.07,0.22-0.1,0.25l0.01,0.37l0.01,0.33c0.03,0.05,0.06,0.12,0.11,0.2c0.04,0.08,0.08,0.14,0.11,0.16
			c0.03,0.05,0.13,0.17,0.32,0.34c0.18,0.17,0.31,0.29,0.4,0.34c0.08,0.08,0.24,0.21,0.46,0.38c0.22,0.17,0.36,0.27,0.42,0.3
			c0.06,0.05,0.22,0.14,0.5,0.26s0.47,0.2,0.58,0.25c0.03,0,0.11,0.03,0.25,0.08c0.14,0.05,0.29,0.1,0.46,0.15
			c0.16,0.05,0.32,0.1,0.46,0.15c0.14,0.05,0.22,0.09,0.25,0.12c0.06,0.03,0.2,0.08,0.44,0.15s0.38,0.13,0.44,0.16
			c0.08,0,0.21-0.01,0.37-0.01c0.19,0,0.39,0,0.6,0.01c0.21,0.01,0.39,0.01,0.55,0.01c0.19-0.01,0.33-0.01,0.41-0.01
			c0.14,0,0.3-0.01,0.49-0.01c0.22-0.01,0.43-0.02,0.64-0.04c0.21-0.02,0.39-0.03,0.55-0.03l0.25,0c0.05,0,0.19-0.03,0.41-0.07
			c0.22-0.05,0.38-0.09,0.49-0.12c0.08-0.03,0.27-0.09,0.57-0.18c0.3-0.09,0.52-0.16,0.66-0.22c0.08-0.03,0.2-0.07,0.37-0.11
			s0.33-0.1,0.49-0.16c0.16-0.06,0.31-0.12,0.45-0.17s0.22-0.09,0.25-0.09c0.05-0.03,0.16-0.09,0.32-0.17
			c0.16-0.09,0.29-0.16,0.37-0.21c0.54-0.31,1.08-0.65,1.62-1c0.54-0.36,1.04-0.75,1.49-1.17l0.68-0.72
			c0.03-0.03,0.15-0.2,0.36-0.52c0.21-0.32,0.38-0.57,0.52-0.73c0.05-0.05,0.12-0.15,0.2-0.29c0.08-0.14,0.12-0.22,0.12-0.25
			c0.05-0.11,0.13-0.28,0.24-0.5c0.1-0.22,0.21-0.45,0.33-0.67s0.22-0.42,0.29-0.6c0.08-0.18,0.13-0.3,0.16-0.35
			c0-0.05,0.04-0.23,0.11-0.54c0.08-0.3,0.14-0.54,0.19-0.7c0.05-0.22,0.16-0.69,0.34-1.41L323.06,38c0-0.05-0.05-0.25-0.16-0.59
			c-0.11-0.34-0.19-0.61-0.25-0.8c-0.03-0.08-0.09-0.26-0.18-0.53c-0.09-0.27-0.15-0.45-0.18-0.53c-0.06-0.05-0.15-0.24-0.28-0.55
			c-0.13-0.31-0.23-0.54-0.29-0.67c-0.03-0.05-0.09-0.17-0.17-0.35c-0.09-0.18-0.16-0.29-0.21-0.35c-0.09-0.16-0.22-0.4-0.41-0.71
			c-0.19-0.31-0.29-0.48-0.32-0.51c-0.03-0.05-0.12-0.17-0.28-0.34s-0.33-0.38-0.53-0.61s-0.39-0.44-0.57-0.64s-0.32-0.36-0.4-0.46
			c-0.06-0.05-0.18-0.17-0.38-0.34c-0.2-0.17-0.32-0.29-0.38-0.34c-0.06-0.08-0.23-0.23-0.5-0.44c-0.28-0.21-0.46-0.36-0.55-0.44
			c-0.03-0.03-0.12-0.08-0.27-0.16c-0.15-0.08-0.24-0.13-0.27-0.16c-0.03-0.03-0.06-0.06-0.11-0.1c-0.04-0.04-0.06-0.08-0.06-0.1
			c-0.06-0.03-0.21-0.1-0.46-0.23c-0.25-0.13-0.4-0.21-0.46-0.24c-0.03-0.03-0.11-0.09-0.25-0.18c-0.14-0.09-0.22-0.15-0.25-0.18
			c-0.11-0.05-0.31-0.14-0.58-0.28c-0.28-0.13-0.56-0.26-0.85-0.39c-0.29-0.13-0.58-0.26-0.86-0.39s-0.47-0.22-0.58-0.28
			c-0.08-0.03-0.28-0.05-0.6-0.09c-0.32-0.04-0.53-0.05-0.64-0.05c-0.03,0-0.12,0-0.27-0.02c-0.15-0.01-0.34-0.01-0.56-0.01
			c-0.19,0-0.4,0.01-0.62,0.01c-0.19,0-0.34,0.01-0.45,0.01c-0.22,0-0.53,0.01-0.95,0.02c-0.41,0.01-0.63,0.03-0.66,0.06
			c-0.06,0-0.26,0.05-0.62,0.14c-0.36,0.09-0.62,0.17-0.78,0.22c-0.03,0-0.09,0.03-0.18,0.09s-0.16,0.09-0.18,0.09
			s-0.11,0.02-0.24,0.07s-0.29,0.09-0.45,0.13s-0.31,0.09-0.45,0.13c-0.14,0.04-0.22,0.07-0.25,0.07c-0.05,0-0.12,0.02-0.21,0.07
			s-0.13,0.08-0.16,0.11c-0.05,0.06-0.17,0.18-0.34,0.38c-0.18,0.2-0.29,0.31-0.34,0.34c-0.03,0.05-0.13,0.15-0.32,0.3
			c-0.19,0.14-0.31,0.22-0.37,0.25l-1.73,1.81c-0.03,0.06-0.13,0.22-0.3,0.48c-0.17,0.26-0.3,0.47-0.38,0.61
			c-0.03,0.03-0.08,0.13-0.16,0.31c-0.08,0.18-0.13,0.31-0.16,0.39c-0.05,0.14-0.14,0.37-0.27,0.69c-0.13,0.32-0.21,0.51-0.23,0.56
			c-0.05,0.11-0.13,0.37-0.25,0.77c-0.11,0.4-0.2,0.67-0.25,0.81c-0.03,0.11-0.06,0.26-0.11,0.46c-0.05,0.2-0.1,0.39-0.15,0.6
			c-0.05,0.21-0.1,0.4-0.15,0.58c-0.05,0.18-0.08,0.28-0.07,0.31c0,0.03,0,0.11-0.02,0.25c-0.01,0.14-0.02,0.29-0.03,0.46
			c-0.01,0.16-0.03,0.32-0.05,0.45c-0.02,0.14-0.04,0.22-0.04,0.25c0,0.06-0.02,0.18-0.07,0.37s-0.07,0.3-0.07,0.33
			c-0.03,0.05-0.05,0.24-0.09,0.56c-0.04,0.32-0.06,0.54-0.09,0.68c-0.07,0.74-0.13,1.48-0.18,2.21c-0.05,0.73-0.07,1.46-0.05,2.21
			l0.02,0.86c0,0.06,0.01,0.18,0.03,0.37c0.02,0.19,0.04,0.4,0.08,0.62c0.03,0.22,0.06,0.43,0.08,0.62s0.03,0.3,0.03,0.33l0,0.21
			l0,0.17c-0.03,0.06-0.08,0.13-0.16,0.21c-0.08,0.08-0.13,0.14-0.16,0.17l-0.25,0.01l-0.29,0.01c-0.03-0.03-0.06-0.06-0.11-0.1
			c-0.04-0.04-0.06-0.07-0.06-0.1c-0.03-0.03-0.06-0.08-0.11-0.16c-0.04-0.08-0.08-0.14-0.11-0.16c0-0.08-0.02-0.23-0.05-0.45
			c-0.03-0.22-0.06-0.45-0.08-0.7c-0.02-0.25-0.04-0.48-0.06-0.7s-0.03-0.37-0.03-0.45l-0.03-1.19l-0.03-1.07
			c0-0.11,0.02-0.34,0.05-0.7c0.03-0.36,0.06-0.74,0.1-1.15c0.03-0.41,0.05-0.81,0.07-1.2c0.02-0.39,0.04-0.66,0.06-0.83
			c0-0.05,0.02-0.21,0.05-0.46c0.04-0.25,0.07-0.4,0.09-0.45c0-0.03,0-0.1,0.01-0.23s0.03-0.25,0.05-0.39s0.04-0.27,0.05-0.39
			c0.01-0.12,0.02-0.2,0.02-0.23s0.03-0.14,0.07-0.33c0.05-0.2,0.08-0.32,0.07-0.37c0.05-0.11,0.12-0.37,0.19-0.77
			c0.07-0.4,0.12-0.67,0.15-0.81c0-0.05,0.02-0.21,0.07-0.46c0.05-0.25,0.07-0.4,0.07-0.46c0.02-0.08,0.07-0.26,0.15-0.54
			c0.08-0.28,0.14-0.44,0.19-0.5c0.03-0.05,0.11-0.24,0.23-0.54c0.13-0.31,0.22-0.49,0.28-0.54c0-0.05,0.04-0.2,0.13-0.43
			s0.15-0.38,0.18-0.44c0.03-0.05,0.1-0.19,0.24-0.42c0.13-0.22,0.22-0.39,0.28-0.5c0.05-0.06,0.12-0.15,0.2-0.27
			c0.08-0.13,0.12-0.2,0.12-0.23c0.08-0.14,0.21-0.32,0.38-0.54s0.29-0.35,0.34-0.38c0.05-0.05,0.15-0.15,0.3-0.29
			s0.3-0.28,0.46-0.42c0.16-0.14,0.32-0.28,0.46-0.42s0.25-0.24,0.3-0.3c0.03-0.03,0.09-0.08,0.18-0.15s0.2-0.15,0.3-0.23
			c0.11-0.09,0.21-0.16,0.32-0.21c0.11-0.06,0.19-0.1,0.24-0.13c0.05-0.03,0.16-0.09,0.3-0.17s0.32-0.18,0.51-0.28
			c0.19-0.1,0.37-0.2,0.53-0.28c0.16-0.09,0.29-0.14,0.37-0.17c0.05-0.03,0.15-0.07,0.29-0.11c0.14-0.04,0.22-0.08,0.24-0.11
			c0.03,0,0.09-0.03,0.18-0.09s0.16-0.09,0.18-0.09s0.13-0.03,0.31-0.07c0.18-0.04,0.3-0.08,0.39-0.11
			c0.11-0.03,0.27-0.07,0.49-0.12c0.22-0.05,0.34-0.08,0.37-0.11c0.03,0,0.12-0.01,0.27-0.03s0.32-0.04,0.51-0.05
			s0.38-0.04,0.55-0.08c0.18-0.03,0.32-0.05,0.43-0.05l0.08,0l0.08,0c0.08,0.03,0.3,0.05,0.66,0.09s0.6,0.05,0.74,0.04
			c0.3,0.05,0.63,0.09,0.97,0.12s0.67,0.1,0.97,0.2c0.03,0,0.09,0.03,0.19,0.08c0.1,0.05,0.16,0.08,0.19,0.08
			c0.05,0.03,0.2,0.08,0.43,0.17c0.24,0.09,0.38,0.15,0.44,0.18c0.05,0.03,0.16,0.06,0.31,0.12c0.15,0.05,0.31,0.12,0.48,0.2
			c0.17,0.08,0.33,0.15,0.48,0.21c0.15,0.07,0.27,0.11,0.35,0.14l0.33,0.16c0.08,0.05,0.26,0.17,0.54,0.34
			c0.28,0.17,0.46,0.28,0.54,0.34c0,0.03,0.03,0.06,0.08,0.1c0.05,0.04,0.08,0.07,0.09,0.1c0.03,0,0.12,0.05,0.27,0.14
			s0.24,0.15,0.27,0.18c0.08,0.08,0.21,0.18,0.4,0.3c0.18,0.12,0.36,0.25,0.52,0.38s0.32,0.25,0.46,0.34
			c0.14,0.09,0.22,0.15,0.25,0.18c0.08,0.08,0.27,0.25,0.55,0.52c0.28,0.27,0.45,0.44,0.51,0.52c0.03,0.03,0.1,0.1,0.21,0.22
			s0.23,0.26,0.36,0.42c0.13,0.16,0.25,0.33,0.38,0.5c0.13,0.18,0.23,0.3,0.32,0.38c0.06,0.08,0.13,0.18,0.23,0.3
			c0.1,0.12,0.19,0.25,0.28,0.38s0.17,0.25,0.25,0.34c0.09,0.09,0.13,0.15,0.13,0.18c0.05,0.08,0.14,0.22,0.26,0.41
			c0.12,0.19,0.24,0.38,0.36,0.59c0.13,0.2,0.24,0.39,0.32,0.57c0.09,0.18,0.14,0.29,0.17,0.35c0.03,0.06,0.09,0.24,0.18,0.55
			c0.09,0.31,0.16,0.54,0.22,0.68c0,0.05,0.05,0.28,0.14,0.67c0.09,0.4,0.17,0.69,0.23,0.88c0.28,1.23,0.43,2.45,0.46,3.65
			l0.02,0.74c0,0.06-0.02,0.21-0.05,0.46c-0.04,0.25-0.07,0.52-0.1,0.83c-0.03,0.3-0.06,0.6-0.08,0.89
			c-0.02,0.29-0.04,0.52-0.07,0.68c0,0.05-0.02,0.2-0.05,0.43c-0.04,0.23-0.07,0.38-0.09,0.43c-0.02,0.14-0.06,0.31-0.11,0.52
			s-0.1,0.41-0.15,0.62c-0.05,0.21-0.1,0.39-0.15,0.54c-0.05,0.15-0.08,0.24-0.08,0.27c-0.03,0.06-0.1,0.2-0.21,0.42
			c-0.12,0.22-0.24,0.47-0.38,0.73c-0.13,0.26-0.27,0.53-0.41,0.79c-0.14,0.26-0.26,0.45-0.34,0.56c-0.08,0.11-0.25,0.35-0.5,0.71
			c-0.25,0.36-0.43,0.6-0.54,0.71c-0.05,0.06-0.15,0.15-0.28,0.29c-0.13,0.14-0.27,0.29-0.4,0.44c-0.14,0.16-0.27,0.3-0.4,0.44
			c-0.13,0.14-0.23,0.22-0.28,0.25c-0.03,0.03-0.12,0.11-0.29,0.23c-0.16,0.13-0.36,0.28-0.59,0.47c-0.23,0.18-0.45,0.36-0.66,0.53
			c-0.22,0.17-0.39,0.31-0.53,0.43c-0.14,0.08-0.28,0.18-0.43,0.28s-0.3,0.18-0.47,0.24c-0.03,0.03-0.11,0.06-0.24,0.11
			c-0.13,0.04-0.22,0.08-0.24,0.11c-0.05,0-0.12,0.02-0.2,0.07s-0.14,0.08-0.16,0.11c-0.03,0.03-0.11,0.09-0.24,0.19
			c-0.13,0.1-0.23,0.16-0.28,0.19c-0.03,0-0.11,0.03-0.24,0.07c-0.14,0.04-0.29,0.08-0.45,0.11c-0.16,0.03-0.31,0.07-0.45,0.11
			c-0.14,0.04-0.22,0.07-0.25,0.07c-0.05,0.03-0.23,0.1-0.53,0.2c-0.3,0.1-0.48,0.17-0.53,0.2c-0.05,0-0.17,0.02-0.35,0.05
			s-0.37,0.06-0.58,0.07c-0.2,0.02-0.4,0.04-0.59,0.05c-0.19,0.02-0.33,0.03-0.41,0.03l-1.15,0.03l-1.11,0.03
			c-0.05,0-0.24-0.02-0.56-0.05s-0.54-0.06-0.68-0.09c-0.05-0.02-0.17-0.06-0.35-0.09c-0.18-0.04-0.3-0.07-0.35-0.09
			c-0.22-0.05-0.53-0.14-0.93-0.27c-0.4-0.13-0.63-0.19-0.68-0.19c-0.05-0.05-0.23-0.17-0.52-0.36c-0.29-0.19-0.46-0.3-0.52-0.36
			c-0.03,0-0.1-0.03-0.23-0.1c-0.13-0.07-0.26-0.14-0.4-0.22c-0.14-0.08-0.27-0.15-0.39-0.22c-0.13-0.06-0.2-0.11-0.23-0.14
			c-0.03,0-0.12-0.05-0.27-0.14s-0.24-0.15-0.27-0.18c-0.03-0.03-0.08-0.06-0.17-0.1c-0.08-0.04-0.15-0.06-0.21-0.05
			c-0.05,0.08-0.17,0.29-0.34,0.6c-0.17,0.32-0.28,0.52-0.34,0.61c0,0.05-0.02,0.15-0.06,0.29c-0.04,0.14-0.07,0.22-0.1,0.25
			c-0.05,0.14-0.13,0.39-0.25,0.77s-0.2,0.59-0.25,0.64c-0.03,0.06-0.08,0.18-0.16,0.38l-0.25,0.01l-0.29,0.01
			c-0.08-0.03-0.23-0.06-0.46-0.09c-0.22-0.04-0.36-0.05-0.41-0.05c-0.03-0.03-0.06-0.06-0.11-0.1c-0.04-0.04-0.06-0.08-0.06-0.1
			c-0.03,0-0.04-0.02-0.04-0.08c0-0.05,0-0.1,0-0.12C298.84,56.75,298.84,56.7,298.84,56.64z"/>
		<path class="st34" d="M325.13,54.02c0-0.05,0.05-0.18,0.16-0.38c0.1-0.19,0.17-0.32,0.2-0.37c0-0.03,0.02-0.14,0.05-0.33
			c0.04-0.19,0.07-0.32,0.09-0.37c0.05-0.14,0.14-0.33,0.25-0.58c0.12-0.25,0.21-0.48,0.29-0.71c0.02-0.14,0.06-0.23,0.12-0.29
			c0.02-0.05,0.13-0.2,0.32-0.44c0.19-0.24,0.31-0.38,0.36-0.44c0.05-0.08,0.14-0.22,0.28-0.4s0.21-0.3,0.24-0.36
			c0.11-0.2,0.16-0.31,0.16-0.33c0.13-0.22,0.26-0.4,0.38-0.54c0.12-0.14,0.27-0.32,0.46-0.55c0.05-0.03,0.15-0.14,0.28-0.34
			s0.21-0.32,0.24-0.38c0.11-0.14,0.33-0.43,0.68-0.88c0.05-0.05,0.2-0.15,0.45-0.3s0.39-0.23,0.45-0.26
			c0.05-0.05,0.2-0.17,0.43-0.36c0.23-0.18,0.37-0.3,0.42-0.36c0.05-0.06,0.14-0.13,0.26-0.21c0.12-0.09,0.21-0.14,0.26-0.17
			c0.38-0.23,0.79-0.44,1.24-0.63c0.45-0.19,0.9-0.29,1.37-0.3l0.37-0.01c0.03,0,0.08,0.02,0.16,0.06c0.08,0.04,0.14,0.07,0.17,0.1
			c0.19,0.05,0.32,0.17,0.38,0.36l0.02,0.62l0.01,0.62c0,0.03-0.02,0.11-0.06,0.25c-0.04,0.14-0.08,0.24-0.14,0.29
			c-0.05,0.14-0.13,0.36-0.25,0.66c-0.12,0.3-0.19,0.48-0.21,0.54c-0.05,0.11-0.14,0.28-0.26,0.5c-0.12,0.22-0.2,0.36-0.26,0.42
			c-0.05,0.06-0.17,0.18-0.36,0.36c-0.19,0.18-0.29,0.3-0.32,0.36c-0.03,0.03-0.07,0.09-0.14,0.19c-0.07,0.1-0.14,0.21-0.22,0.33
			c-0.08,0.13-0.15,0.25-0.22,0.36c-0.07,0.11-0.1,0.18-0.1,0.21c-0.05,0.08-0.15,0.22-0.28,0.4c-0.13,0.18-0.21,0.29-0.24,0.31
			c-0.03,0.03-0.11,0.09-0.26,0.17c-0.15,0.09-0.24,0.14-0.26,0.17c-0.08,0.08-0.22,0.23-0.42,0.44c-0.2,0.21-0.42,0.43-0.64,0.65
			c-0.23,0.22-0.44,0.44-0.64,0.65c-0.2,0.21-0.34,0.36-0.42,0.44c-0.14,0.06-0.29,0.16-0.47,0.3c-0.18,0.14-0.34,0.29-0.5,0.43
			c-0.08,0.06-0.26,0.22-0.52,0.51c-0.27,0.28-0.44,0.46-0.52,0.55l0,0.08l0,0.08l0.21,0.2c0.05,0.03,0.17,0.06,0.35,0.1
			s0.3,0.05,0.35,0.05l0.91-0.02c0.11,0,0.32,0.01,0.62,0.03c0.08,0,0.31-0.09,0.67-0.26c0.37-0.17,0.63-0.29,0.8-0.35
			c0.03,0,0.14-0.06,0.32-0.17c0.05,0,0.19-0.02,0.39-0.05c0.21-0.03,0.34-0.06,0.39-0.09c0.41-0.15,0.78-0.33,1.1-0.56
			c0.32-0.23,0.65-0.4,0.98-0.52c0.03,0,0.11-0.06,0.24-0.17c0.13-0.11,0.23-0.18,0.28-0.21c0.08-0.06,0.27-0.17,0.57-0.32
			c0.3-0.16,0.5-0.25,0.61-0.28l0.11,1.19c-0.05,0.03-0.11,0.07-0.16,0.13c-0.05,0.06-0.2,0.19-0.44,0.38
			c-0.22,0.2-0.48,0.41-0.79,0.63c-0.31,0.23-0.54,0.37-0.67,0.43c-0.3,0.23-0.59,0.39-0.87,0.49c-0.29,0.1-0.7,0.3-1.24,0.58
			c-0.05,0-0.21,0.05-0.47,0.16c-0.26,0.1-0.44,0.15-0.55,0.16c-0.27,0.06-0.61,0.18-1,0.35c-0.39,0.17-0.63,0.27-0.71,0.3
			l-0.45,0.01l-0.58,0.01c-0.17-0.02-0.43-0.05-0.79-0.09s-0.56-0.05-0.62-0.05c-0.05-0.03-0.15-0.09-0.29-0.18
			c-0.14-0.09-0.22-0.15-0.25-0.18c-0.05-0.03-0.21-0.06-0.46-0.11s-0.4-0.09-0.46-0.11c-0.06-0.03-0.13-0.06-0.21-0.1
			s-0.13-0.07-0.13-0.1c-0.03,0-0.06-0.04-0.11-0.12c-0.04-0.08-0.07-0.15-0.07-0.2c-0.06-0.14-0.14-0.33-0.24-0.59
			c-0.11-0.26-0.16-0.41-0.16-0.47c-0.04-0.3-0.05-0.48-0.05-0.54C325.09,54.46,325.1,54.29,325.13,54.02z M333.97,45.84
			c-0.12,0.02-0.2,0.03-0.23,0.03c-0.14,0.03-0.26,0.1-0.37,0.21c-0.08,0.06-0.25,0.2-0.5,0.42c-0.26,0.22-0.51,0.42-0.75,0.59
			c-0.13,0.14-0.27,0.23-0.41,0.28c-0.13,0.04-0.27,0.09-0.41,0.15c-0.11,0-0.16,0.06-0.16,0.17c-0.03,0.03-0.07,0.08-0.12,0.15
			c-0.05,0.07-0.13,0.17-0.24,0.31c-0.19,0.22-0.31,0.36-0.36,0.42c-0.05,0.06-0.19,0.21-0.4,0.46c-0.13,0.17-0.29,0.36-0.46,0.59
			c-0.17,0.23-0.34,0.44-0.5,0.63c-0.16,0.2-0.31,0.38-0.44,0.54c-0.13,0.17-0.21,0.27-0.24,0.29c-0.05,0.08-0.14,0.24-0.26,0.48
			c-0.12,0.24-0.24,0.49-0.37,0.75c-0.13,0.27-0.25,0.52-0.36,0.75c-0.1,0.24-0.17,0.41-0.19,0.52l0.08,0l0.12,0
			c0.27-0.2,0.43-0.32,0.49-0.38c0.19-0.11,0.37-0.24,0.55-0.38s0.29-0.23,0.35-0.26c0.13-0.11,0.3-0.24,0.5-0.38
			c0.2-0.14,0.32-0.21,0.35-0.21c0.08-0.08,0.21-0.21,0.4-0.4c0.19-0.18,0.4-0.38,0.62-0.59c0.23-0.21,0.44-0.41,0.63-0.59
			c0.19-0.18,0.32-0.32,0.4-0.4c0.03-0.03,0.1-0.11,0.22-0.25c0.12-0.14,0.25-0.29,0.4-0.46c0.15-0.17,0.27-0.32,0.38-0.46
			c0.11-0.14,0.17-0.24,0.2-0.29c0.03-0.03,0.12-0.11,0.26-0.25s0.23-0.22,0.26-0.25c0.08-0.14,0.21-0.37,0.38-0.69
			c0.17-0.32,0.27-0.51,0.29-0.56c0.03-0.08,0.05-0.25,0.09-0.5c0.04-0.25,0.05-0.4,0.05-0.46
			C334.18,45.82,334.09,45.83,333.97,45.84z"/>
		<path class="st34" d="M350.27,44.78c0.05,0,0.17,0,0.35,0.01s0.29,0.01,0.35,0.01c0.11,0.05,0.18,0.12,0.21,0.2
			s0.07,0.18,0.13,0.29c0.18,0.35,0.24,0.74,0.19,1.17c-0.04,0.43-0.15,0.87-0.32,1.32s-0.37,0.91-0.61,1.35s-0.46,0.83-0.67,1.17
			c-0.48,0.64-0.97,1.27-1.46,1.87c-0.49,0.6-0.98,1.22-1.46,1.87l0,0.12l0,0.08c0.03,0.03,0.08,0.06,0.17,0.1s0.14,0.06,0.17,0.06
			l0.49-0.01l0.58-0.01c0.13,0,0.19-0.01,0.16-0.03c-0.03-0.01,0-0.03,0.08-0.06c0.14-0.03,0.3-0.09,0.49-0.2
			c0.19-0.1,0.39-0.18,0.61-0.24c0.05-0.03,0.22-0.1,0.51-0.22s0.46-0.18,0.51-0.18c0.6,0.07,1.02,0.17,1.24,0.3
			c0.22,0.13,0.3,0.28,0.23,0.45c-0.07,0.17-0.22,0.34-0.46,0.53c-0.24,0.18-0.51,0.35-0.79,0.49c-0.29,0.15-0.56,0.26-0.81,0.35
			c-0.26,0.09-0.43,0.13-0.51,0.13c0.03,0-0.2,0.07-0.7,0.22c-0.11,0.03-0.21,0.06-0.31,0.09c-0.1,0.03-0.17,0.05-0.22,0.05
			c-0.33,0.06-0.59,0.12-0.8,0.16c-0.2,0.04-0.36,0.08-0.47,0.11c-0.03,0-0.16,0-0.39-0.01c-0.23-0.01-0.42,0-0.55,0.04
			c-0.11,0-0.28,0.01-0.49,0.01c-0.22,0-0.34,0.01-0.37,0.01c-0.05,0-0.18,0-0.37,0.01c-0.19,0-0.3,0.01-0.33,0.01
			c-0.03,0-0.13-0.02-0.31-0.06s-0.39-0.07-0.62-0.11c-0.23-0.04-0.44-0.07-0.62-0.11s-0.28-0.06-0.31-0.05
			c-0.25,0.01-0.48-0.04-0.7-0.15c-0.22-0.1-0.4-0.15-0.54-0.15l-0.71-0.69c-0.06-0.05-0.2-0.23-0.43-0.54
			c-0.23-0.31-0.38-0.53-0.47-0.67c-0.03-0.03-0.06-0.09-0.11-0.18s-0.06-0.16-0.06-0.18c-0.03-0.03-0.06-0.06-0.11-0.1
			c-0.04-0.04-0.08-0.06-0.11-0.06l-0.25,0.01l-0.25,0.01c-0.14,0.06-0.43,0.13-0.88,0.23c-0.45,0.09-0.8,0.21-1.04,0.35
			c-0.16,0.09-0.32,0.17-0.47,0.26c-0.15,0.08-0.28,0.18-0.38,0.29c-0.03,0-0.09,0.03-0.18,0.09c-0.1,0.06-0.16,0.09-0.18,0.09
			c-0.03,0.03-0.14,0.12-0.32,0.27s-0.31,0.25-0.36,0.28c-0.16,0.09-0.38,0.21-0.65,0.37s-0.53,0.3-0.77,0.43
			c-0.24,0.13-0.55,0.3-0.94,0.5l-0.37,0.01c-0.54-0.51-0.6-1-0.2-1.48c0-0.03,0.06-0.11,0.18-0.23c0.12-0.13,0.19-0.2,0.22-0.23
			c0.05-0.03,0.2-0.09,0.45-0.17s0.39-0.15,0.45-0.18c0.16-0.09,0.45-0.25,0.85-0.49c0.41-0.24,0.75-0.44,1.02-0.58
			c0.11-0.06,0.2-0.1,0.26-0.13c0.07-0.03,0.12-0.06,0.14-0.09c0.05-0.03,0.18-0.12,0.36-0.28c0.19-0.15,0.31-0.25,0.37-0.28
			c0.65-0.23,1.3-0.53,1.96-0.89c0.65-0.36,1.31-0.68,1.99-0.97c0.03-0.03,0.09-0.06,0.18-0.11c0.09-0.04,0.16-0.08,0.18-0.11
			c0.03,0,0.11-0.05,0.24-0.15s0.21-0.16,0.24-0.19c0.46-0.23,1.02-0.55,1.67-0.97c0.65-0.41,1.2-0.76,1.66-1.05
			c0.63-0.37,1.24-0.8,1.84-1.28c0.61-0.48,1.26-0.91,1.97-1.28c0.14-0.06,0.33-0.16,0.59-0.3c0.26-0.14,0.4-0.23,0.43-0.26
			c0.03,0,0.13-0.01,0.31-0.03C350.06,44.79,350.19,44.78,350.27,44.78z M341.46,52.07l0,0.16c0.03,0.05,0.12,0.15,0.28,0.28
			c0.15,0.13,0.24,0.21,0.27,0.24c0.05,0.06,0.18,0.2,0.36,0.45c0.18,0.24,0.3,0.39,0.36,0.45c0.03,0.03,0.08,0.06,0.17,0.1
			c0.08,0.04,0.15,0.06,0.21,0.05l0.45-0.01l0.41-0.01c0.03,0,0.08-0.02,0.16-0.06s0.15-0.08,0.21-0.11
			c0.03-0.03,0.13-0.11,0.3-0.25c0.17-0.14,0.3-0.24,0.38-0.3c0.78-0.65,1.57-1.42,2.38-2.32c0.8-0.9,1.37-1.86,1.7-2.88
			c0.03-0.06,0.06-0.18,0.09-0.37s0.05-0.32,0.05-0.37c-0.03,0-0.08,0.01-0.17,0.03s-0.14,0.02-0.16,0.03
			c-0.3,0.01-0.58,0.09-0.82,0.24c-0.24,0.16-0.49,0.32-0.73,0.49c-0.03,0-0.09,0.03-0.18,0.09c-0.09,0.06-0.16,0.09-0.18,0.09
			c-0.03,0.03-0.13,0.11-0.3,0.26c-0.18,0.14-0.36,0.28-0.57,0.42s-0.39,0.28-0.57,0.4c-0.18,0.13-0.28,0.19-0.3,0.19
			c-0.05,0.06-0.14,0.13-0.26,0.21c-0.12,0.09-0.2,0.14-0.22,0.17c-0.46,0.2-0.97,0.45-1.53,0.74s-0.98,0.59-1.28,0.89
			c-0.05,0.06-0.15,0.15-0.28,0.28c-0.13,0.13-0.21,0.21-0.24,0.27L341.46,52.07z"/>
		<path class="st34" d="M351.06,54.07l-0.02-0.62c0-0.03,0.02-0.13,0.05-0.31c0.04-0.18,0.07-0.31,0.09-0.39
			c0.03-0.08,0.06-0.19,0.1-0.33c0.04-0.14,0.07-0.21,0.1-0.21c0.51-0.48,0.93-0.99,1.26-1.53c0.33-0.54,0.68-1.03,1.06-1.45
			c0.03-0.03,0.09-0.1,0.18-0.23c0.09-0.13,0.2-0.25,0.3-0.38s0.21-0.25,0.32-0.36c0.11-0.11,0.18-0.18,0.2-0.21
			c0.03-0.03,0.1-0.1,0.22-0.21c0.12-0.11,0.21-0.17,0.27-0.17c0-0.08,0.04-0.17,0.12-0.25c0.05-0.05,0.14-0.13,0.26-0.23
			c0.12-0.1,0.2-0.15,0.22-0.15c0.16-0.06,0.27-0.09,0.33-0.09l0.37-0.01c0.08,0.05,0.14,0.09,0.17,0.12
			c0.06,0.08,0.14,0.2,0.26,0.34c0.11,0.15,0.18,0.25,0.21,0.3c0,0.03,0.01,0.07,0.02,0.12s0.02,0.11,0.03,0.16
			c0,0.03,0.02,0.11,0.05,0.25c-0.05,0.05-0.15,0.21-0.3,0.46c-0.14,0.25-0.26,0.42-0.34,0.5c-0.03,0.03-0.1,0.1-0.22,0.21
			c-0.12,0.11-0.2,0.18-0.22,0.21c-0.08,0.08-0.23,0.26-0.46,0.53c-0.23,0.26-0.38,0.43-0.46,0.48c-0.03,0.06-0.12,0.2-0.28,0.44
			c-0.16,0.24-0.33,0.49-0.52,0.77c-0.19,0.28-0.35,0.54-0.5,0.77c-0.14,0.24-0.23,0.37-0.26,0.4c-0.03,0.03-0.06,0.08-0.1,0.17
			c-0.04,0.08-0.06,0.15-0.06,0.21c-0.02,0.14-0.04,0.22-0.04,0.25c0,0.06,0.01,0.11,0.03,0.17c0.01,0.05,0.02,0.09,0.02,0.12
			l0.17,0.16c0.08,0.05,0.21,0.12,0.4,0.2c0.18,0.08,0.28,0.12,0.31,0.12s0.1,0,0.23,0.01c0.12,0.01,0.23,0.02,0.31,0.02
			c0.05,0,0.15-0.01,0.29-0.03c0.14-0.02,0.22-0.02,0.25-0.03c0.88-0.13,1.62-0.37,2.23-0.71c0.61-0.34,1.27-0.7,1.97-1.08
			c0.08-0.06,0.21-0.13,0.38-0.21c0.18-0.09,0.28-0.14,0.3-0.17l0.21,0l0.16,0c0.03,0.03,0.09,0.13,0.17,0.3
			c0.09,0.18,0.14,0.3,0.18,0.39l0,0.17l0,0.21l-0.16,0.17c-0.06,0.03-0.18,0.12-0.37,0.26c-0.19,0.14-0.3,0.24-0.32,0.29
			c-0.03,0-0.06,0.03-0.1,0.08c-0.04,0.06-0.07,0.09-0.1,0.09c0,0.03-0.04,0.06-0.12,0.11s-0.15,0.07-0.2,0.07
			c-0.63,0.34-1.12,0.61-1.48,0.8c-0.37,0.19-0.7,0.34-1,0.46c-0.3,0.12-0.6,0.21-0.9,0.29c-0.3,0.08-0.7,0.18-1.19,0.3l-0.58,0.01
			l-0.66,0.01c-0.08,0-0.28-0.01-0.6-0.05c-0.32-0.04-0.53-0.06-0.64-0.09c-0.05-0.03-0.15-0.06-0.29-0.1
			c-0.14-0.04-0.21-0.07-0.21-0.1c-0.03-0.02-0.09-0.09-0.19-0.18c-0.1-0.09-0.2-0.2-0.29-0.32c-0.1-0.12-0.19-0.23-0.28-0.32
			c-0.09-0.09-0.14-0.15-0.17-0.18c0-0.11-0.06-0.16-0.17-0.16L351.06,54.07z M360.03,40.38c0.01-0.12,0.02-0.2,0.02-0.23l0.16-0.17
			c0.05-0.03,0.12-0.07,0.2-0.11c0.08-0.04,0.14-0.06,0.16-0.06l0.25-0.01l0.25-0.01c0.08,0.03,0.24,0.08,0.48,0.15
			c0.23,0.08,0.38,0.13,0.44,0.15c0.05,0.06,0.17,0.18,0.36,0.36c0.18,0.19,0.3,0.31,0.36,0.36l0,0.21l0.01,0.29
			c-0.03,0.03-0.05,0.06-0.08,0.1s-0.07,0.08-0.12,0.11c-0.03,0-0.15,0.02-0.37,0.07c-0.22,0.04-0.38,0.08-0.49,0.11l-0.17,0
			l-0.16,0c-0.05,0-0.14-0.02-0.27-0.05c-0.12-0.04-0.21-0.07-0.27-0.1s-0.13-0.06-0.21-0.1c-0.08-0.04-0.14-0.07-0.17-0.1
			c-0.05-0.03-0.13-0.08-0.21-0.16c-0.08-0.08-0.13-0.13-0.13-0.16c-0.03-0.22-0.05-0.36-0.05-0.41
			C360.01,40.59,360.01,40.5,360.03,40.38z"/>
		<path class="st34" d="M343.84,73.36c-0.02-0.18-0.03-0.28-0.03-0.31c0-0.05,0.02-0.17,0.05-0.35c0.04-0.18,0.07-0.3,0.1-0.35
			c0.05-0.08,0.12-0.26,0.21-0.54c0.09-0.28,0.16-0.44,0.21-0.5c0.03-0.05,0.13-0.2,0.3-0.44c0.17-0.24,0.29-0.43,0.34-0.56
			c0-0.03,0.04-0.08,0.12-0.17c0.11-0.09,0.27-0.23,0.48-0.42c0.21-0.2,0.35-0.31,0.4-0.34c0.08-0.06,0.19-0.14,0.32-0.25
			c0.13-0.11,0.28-0.23,0.44-0.36c0.16-0.13,0.3-0.24,0.43-0.34c0.12-0.1,0.21-0.18,0.26-0.23c0.03-0.03,0.12-0.09,0.29-0.19
			c0.16-0.1,0.34-0.21,0.55-0.32c0.2-0.12,0.39-0.21,0.55-0.3s0.27-0.14,0.33-0.17c0.05-0.06,0.18-0.16,0.38-0.3
			c0.2-0.14,0.4-0.27,0.59-0.39c0.11-0.06,0.21-0.11,0.3-0.17c0.09-0.06,0.17-0.11,0.22-0.17c0.08-0.03,0.34-0.17,0.77-0.41
			c0.44-0.25,0.89-0.51,1.38-0.79c0.49-0.29,0.93-0.56,1.34-0.81s0.64-0.41,0.69-0.47c0.03-0.03,0.12-0.11,0.28-0.23
			c0.16-0.13,0.33-0.26,0.51-0.41c0.17-0.14,0.34-0.28,0.5-0.4c0.16-0.13,0.26-0.21,0.29-0.23c0.16-0.03,0.29-0.08,0.39-0.15
			c0.1-0.07,0.21-0.16,0.34-0.28c0.22-0.12,0.47-0.26,0.75-0.43c0.28-0.17,0.47-0.29,0.55-0.34c0.03,0,0.11-0.04,0.24-0.13
			c0.14-0.08,0.22-0.13,0.25-0.13c0.05-0.05,0.21-0.18,0.46-0.38c0.26-0.2,0.41-0.31,0.47-0.34c0.05-0.06,0.15-0.12,0.28-0.17
			c0.13-0.06,0.22-0.09,0.24-0.09c0.03-0.03,0.11-0.1,0.24-0.21c0.13-0.12,0.29-0.23,0.46-0.36c0.18-0.13,0.34-0.26,0.48-0.38
			c0.15-0.13,0.26-0.22,0.35-0.28c0.13-0.09,0.28-0.19,0.45-0.32c0.16-0.13,0.3-0.25,0.42-0.36c0.12-0.11,0.21-0.21,0.28-0.29
			c0.07-0.08,0.07-0.13,0.02-0.13l-0.01-0.58l-0.05-0.37c-0.03-0.14-0.01-0.12,0.06,0.04c0.07,0.16,0.09,0.22,0.07,0.16
			c0-0.03-0.02-0.08-0.07-0.16c-0.04-0.08-0.08-0.15-0.11-0.2c-0.09-0.08-0.23-0.17-0.44-0.26c-0.21-0.09-0.33-0.15-0.35-0.18
			c-0.03,0-0.12-0.02-0.27-0.05s-0.32-0.09-0.52-0.15c-0.19-0.06-0.39-0.13-0.58-0.21c-0.19-0.08-0.35-0.14-0.46-0.19
			c-0.14-0.13-0.3-0.22-0.5-0.26c-0.19-0.04-0.4-0.16-0.63-0.38c-0.03-0.03-0.09-0.12-0.19-0.26s-0.16-0.24-0.19-0.26
			c-0.03,0-0.06-0.02-0.1-0.06c-0.04-0.04-0.08-0.06-0.11-0.06c-0.03-0.03-0.08-0.1-0.17-0.22s-0.14-0.21-0.17-0.26
			c-0.06-0.05-0.14-0.17-0.26-0.34c-0.11-0.18-0.17-0.29-0.17-0.35c-0.01-0.44,0.02-0.8,0.1-1.07c0.08-0.28,0.17-0.51,0.29-0.71
			c0.12-0.19,0.24-0.38,0.38-0.56c0.13-0.18,0.27-0.38,0.4-0.61c0.03-0.05,0.11-0.16,0.24-0.31c0.13-0.15,0.28-0.32,0.44-0.51
			c0.16-0.18,0.32-0.35,0.46-0.5c0.14-0.15,0.26-0.27,0.34-0.36c0.05-0.06,0.17-0.15,0.34-0.28c0.18-0.13,0.29-0.22,0.34-0.28
			c0.03-0.03,0.11-0.09,0.26-0.19c0.15-0.1,0.3-0.2,0.47-0.3c0.16-0.1,0.32-0.2,0.46-0.3s0.24-0.16,0.26-0.19
			c0.05-0.03,0.16-0.12,0.32-0.28c0.16-0.15,0.34-0.32,0.52-0.51s0.36-0.34,0.5-0.49c0.15-0.14,0.25-0.22,0.3-0.25
			c0.13-0.14,0.33-0.31,0.59-0.51s0.41-0.3,0.47-0.3c0.03-0.03,0.14-0.06,0.33-0.09c0.19-0.03,0.34-0.05,0.45-0.05l0.45-0.01
			c0.19-0.01,0.3,0.01,0.33,0.03c0.05,0,0.26,0.08,0.6,0.25c0.35,0.17,0.62,0.28,0.81,0.33c0.03,0,0.06,0.02,0.1,0.06
			c0.04,0.04,0.08,0.07,0.11,0.1c0.06,0.11,0.17,0.26,0.34,0.46c0.17,0.2,0.27,0.32,0.3,0.34l0.01,0.25l0.01,0.29
			c-0.03,0.03-0.06,0.11-0.1,0.25c-0.04,0.14-0.07,0.23-0.1,0.29c0.03,0.06,0.03,0.12,0,0.21s-0.05,0.13-0.08,0.13
			c-0.03,0.06-0.08,0.13-0.16,0.23c-0.08,0.1-0.15,0.16-0.2,0.19c-0.05,0.05-0.14,0.13-0.26,0.23c-0.12,0.1-0.2,0.16-0.22,0.19
			l-0.17,0l-0.21,0c-0.03-0.03-0.08-0.06-0.17-0.1s-0.14-0.06-0.17-0.06c-0.05-0.03-0.15-0.11-0.29-0.26
			c-0.14-0.15-0.23-0.24-0.25-0.26l-0.16,0c-0.08,0-0.14,0.02-0.16,0.04l-0.37,0.01l-1.22,0.44c-0.05,0.03-0.18,0.08-0.37,0.15
			c-0.19,0.07-0.3,0.11-0.33,0.11c-0.11,0.11-0.23,0.19-0.37,0.22c-0.11,0.06-0.26,0.16-0.46,0.32c-0.2,0.16-0.32,0.23-0.35,0.23
			c-0.05,0.08-0.18,0.22-0.38,0.42c-0.2,0.2-0.4,0.38-0.58,0.55c-0.11,0.09-0.21,0.17-0.3,0.26c-0.1,0.08-0.18,0.13-0.27,0.13
			c-0.08,0.11-0.24,0.29-0.48,0.53c-0.24,0.24-0.39,0.39-0.44,0.44c-0.16,0.09-0.28,0.25-0.36,0.5c-0.07,0.25-0.11,0.45-0.11,0.62
			l0.01,0.25c0,0.05,0.02,0.14,0.05,0.25c0.03,0.03,0.14,0.13,0.34,0.3c0.2,0.17,0.34,0.29,0.42,0.34c0.03,0.03,0.08,0.06,0.17,0.1
			c0.08,0.04,0.14,0.06,0.17,0.06c0.03,0,0.1,0.01,0.21,0.04c0.11,0.02,0.23,0.06,0.35,0.09c0.13,0.04,0.23,0.07,0.33,0.1
			c0.1,0.02,0.16,0.04,0.19,0.04c0.06,0.03,0.18,0.11,0.38,0.24c0.2,0.13,0.32,0.23,0.38,0.28c0.14,0.08,0.35,0.24,0.63,0.48
			c0.28,0.24,0.45,0.39,0.5,0.44c0.03,0.03,0.1,0.09,0.21,0.18c0.11,0.09,0.18,0.17,0.21,0.22c0.14,0.22,0.22,0.46,0.22,0.74l0.17,0
			c0.03,0,0.06-0.01,0.1-0.02c0.04-0.01,0.08-0.02,0.1-0.02c0.11-0.06,0.3-0.12,0.59-0.18c0.29-0.06,0.47-0.12,0.55-0.18
			c0.05-0.03,0.19-0.14,0.42-0.34c0.23-0.2,0.37-0.32,0.43-0.38c0.05-0.03,0.16-0.09,0.32-0.19s0.27-0.16,0.32-0.19
			c0.03-0.03,0.1-0.09,0.22-0.19c0.12-0.1,0.24-0.2,0.36-0.3c0.12-0.1,0.24-0.2,0.36-0.29c0.12-0.1,0.2-0.16,0.22-0.19
			c0.05-0.06,0.22-0.18,0.51-0.38s0.45-0.33,0.51-0.38c0.05-0.03,0.16-0.15,0.32-0.38c0.16-0.22,0.27-0.35,0.32-0.38
			c0.11-0.09,0.25-0.2,0.42-0.36c0.18-0.15,0.36-0.31,0.55-0.46c0.19-0.16,0.42-0.33,0.69-0.53l0.68,0.77c0,0.05,0,0.2-0.01,0.43
			c-0.01,0.23-0.01,0.38-0.01,0.43c0,0.11-0.05,0.18-0.16,0.21c-0.13,0.12-0.32,0.3-0.56,0.55c-0.24,0.25-0.44,0.47-0.6,0.65
			s-0.25,0.29-0.28,0.32c-0.05,0.05-0.17,0.12-0.35,0.19s-0.34,0.18-0.51,0.32c-0.05,0.06-0.15,0.14-0.3,0.25
			c-0.15,0.12-0.26,0.24-0.34,0.38c-0.06,0-0.14,0.04-0.26,0.11c-0.12,0.07-0.21,0.13-0.26,0.19c0,0.03-0.05,0.07-0.14,0.13
			c-0.09,0.06-0.16,0.09-0.18,0.09c-0.16,0.17-0.28,0.29-0.34,0.36c-0.07,0.07-0.24,0.22-0.51,0.44c-0.11,0.08-0.21,0.16-0.3,0.23
			c-0.09,0.07-0.16,0.12-0.18,0.15c-0.03,0.03-0.1,0.12-0.22,0.27c-0.12,0.15-0.21,0.25-0.26,0.28c-0.03,0.05-0.11,0.13-0.24,0.21
			c-0.13,0.08-0.23,0.14-0.28,0.17c-0.03,0.03-0.1,0.07-0.2,0.13c-0.11,0.06-0.22,0.12-0.32,0.17c-0.11,0.06-0.21,0.12-0.3,0.17
			s-0.14,0.1-0.14,0.13c-0.03,0.03-0.07,0.14-0.13,0.33c-0.06,0.19-0.12,0.33-0.18,0.42c-0.03,0.05-0.08,0.22-0.15,0.5
			c-0.07,0.28-0.1,0.47-0.07,0.58c-0.03,0.05-0.06,0.17-0.09,0.35c-0.04,0.18-0.07,0.3-0.1,0.35c0,0.05-0.02,0.16-0.05,0.31
			c-0.04,0.15-0.07,0.24-0.1,0.27c-0.03,0.06-0.07,0.17-0.14,0.35c-0.06,0.18-0.1,0.3-0.09,0.35c-0.03,0.05-0.08,0.2-0.18,0.44
			c-0.09,0.24-0.15,0.38-0.17,0.44c0,0.05-0.08,0.22-0.24,0.5c-0.16,0.28-0.28,0.49-0.36,0.63c-0.03,0.03-0.09,0.12-0.18,0.27
			s-0.19,0.31-0.3,0.48c-0.11,0.17-0.21,0.32-0.3,0.46c-0.09,0.14-0.15,0.22-0.18,0.25c-0.03,0.05-0.07,0.16-0.14,0.31
			c-0.06,0.15-0.11,0.24-0.14,0.27c-0.05,0.06-0.18,0.22-0.38,0.5c-0.2,0.28-0.35,0.49-0.46,0.63l-0.16,0.17
			c-0.11,0.11-0.25,0.27-0.44,0.46c-0.19,0.2-0.38,0.4-0.56,0.61c-0.19,0.21-0.36,0.39-0.5,0.55c-0.15,0.15-0.24,0.25-0.26,0.27
			c-0.05,0.06-0.19,0.19-0.4,0.4s-0.36,0.34-0.44,0.4c-0.16,0.17-0.31,0.29-0.44,0.36c-0.14,0.07-0.26,0.21-0.36,0.4
			c-0.38,0.36-0.77,0.7-1.17,0.99c-0.4,0.3-0.82,0.6-1.25,0.91c-0.13,0.14-0.32,0.26-0.55,0.37c-0.23,0.1-0.45,0.26-0.67,0.49
			c-0.05,0.03-0.18,0.09-0.39,0.17c-0.2,0.09-0.33,0.14-0.39,0.17c-0.05,0.06-0.17,0.11-0.35,0.18c-0.18,0.06-0.29,0.09-0.35,0.09
			c-0.05,0.03-0.14,0.07-0.27,0.11c-0.12,0.04-0.21,0.08-0.26,0.11c-0.05,0-0.2,0.07-0.43,0.22c-0.23,0.14-0.37,0.21-0.43,0.22
			c-0.05,0-0.17,0.03-0.35,0.07c-0.18,0.04-0.38,0.09-0.62,0.14c-0.23,0.05-0.46,0.1-0.67,0.16c-0.22,0.06-0.38,0.11-0.49,0.13
			l-0.13,0c-0.11,0-0.18,0.02-0.2,0.04c-0.05,0-0.23,0.04-0.51,0.12c-0.29,0.08-0.46,0.11-0.51,0.12c-0.05,0-0.19-0.01-0.39-0.03
			c-0.21-0.02-0.45-0.05-0.72-0.08c-0.27-0.04-0.54-0.08-0.8-0.13s-0.46-0.09-0.6-0.11c-0.03,0-0.08-0.02-0.17-0.06
			s-0.14-0.07-0.17-0.1c-0.08-0.05-0.22-0.15-0.4-0.3s-0.3-0.25-0.36-0.3c-0.06-0.11-0.16-0.3-0.32-0.57
			c-0.16-0.27-0.25-0.43-0.28-0.49l-0.01-0.54C343.88,73.67,343.85,73.54,343.84,73.36z M345.68,74c0.08,0.08,0.14,0.13,0.17,0.16
			c0.14,0.13,0.31,0.24,0.52,0.32c0.21,0.08,0.39,0.11,0.56,0.11l0.78-0.02c0.47-0.01,0.73-0.03,0.78-0.06
			c0.22-0.01,0.53-0.04,0.92-0.09c0.4-0.05,0.62-0.07,0.68-0.08c0.71-0.24,1.17-0.38,1.39-0.44c0.08-0.06,0.28-0.14,0.59-0.24
			c0.31-0.1,0.52-0.17,0.63-0.2l0.49-0.18c0.14-0.06,0.37-0.2,0.69-0.41c0.32-0.21,0.54-0.35,0.65-0.41
			c0.03-0.03,0.17-0.15,0.42-0.36c0.26-0.21,0.45-0.37,0.59-0.49c0.03-0.03,0.1-0.09,0.2-0.19c0.11-0.1,0.23-0.2,0.36-0.3
			c0.13-0.1,0.26-0.2,0.36-0.3c0.11-0.1,0.18-0.16,0.2-0.19c0.05-0.03,0.19-0.11,0.4-0.26s0.35-0.24,0.4-0.3
			c0.03-0.03,0.1-0.12,0.22-0.27c0.12-0.15,0.19-0.26,0.22-0.31c0.03-0.03,0.09-0.09,0.2-0.19c0.11-0.1,0.22-0.2,0.32-0.29
			c0.11-0.1,0.21-0.19,0.3-0.28s0.16-0.14,0.18-0.17c0.08-0.09,0.2-0.21,0.36-0.36s0.32-0.32,0.48-0.48
			c0.16-0.17,0.3-0.31,0.42-0.44c0.12-0.13,0.18-0.2,0.18-0.23c0.03-0.03,0.08-0.1,0.16-0.21c0.08-0.11,0.17-0.24,0.28-0.38
			c0.11-0.14,0.21-0.28,0.3-0.42c0.09-0.14,0.16-0.25,0.22-0.33c0.05-0.06,0.13-0.17,0.24-0.36c0.11-0.18,0.18-0.3,0.24-0.36
			c0.03-0.03,0.1-0.16,0.22-0.4c0.12-0.23,0.2-0.41,0.25-0.52c0.05-0.19,0.16-0.45,0.33-0.77c0.17-0.32,0.27-0.49,0.3-0.52
			c0-0.03,0.04-0.12,0.12-0.27s0.17-0.32,0.28-0.5c0.11-0.18,0.2-0.35,0.28-0.5c0.08-0.15,0.12-0.24,0.12-0.27
			c0.03-0.03,0.06-0.09,0.1-0.19c0.04-0.1,0.07-0.16,0.1-0.19c0-0.05-0.01-0.2-0.03-0.43c-0.02-0.23-0.03-0.38-0.03-0.43
			c-0.05,0-0.2,0.03-0.45,0.07s-0.41,0.1-0.49,0.16c-0.21,0.14-0.45,0.35-0.71,0.61s-0.64,0.54-1.15,0.83
			c-0.03,0-0.11,0.03-0.25,0.09c-0.14,0.06-0.23,0.1-0.29,0.13c-0.05,0.06-0.17,0.13-0.34,0.21s-0.29,0.16-0.34,0.21
			c-0.06,0-0.21,0.12-0.46,0.36c-0.26,0.24-0.41,0.39-0.46,0.45c-0.05,0-0.15,0.02-0.29,0.07c-0.14,0.04-0.22,0.08-0.25,0.11
			c-0.05,0.03-0.18,0.09-0.37,0.2c-0.19,0.1-0.3,0.15-0.33,0.15l-0.82,0.3c-0.11,0.03-0.31,0.13-0.61,0.3
			c-0.3,0.17-0.49,0.29-0.57,0.34c0,0.03-0.09,0.11-0.28,0.25c-0.19,0.14-0.31,0.23-0.36,0.26c-0.08,0.08-0.22,0.19-0.43,0.32
			c-0.2,0.13-0.41,0.26-0.63,0.38c-0.22,0.13-0.42,0.24-0.61,0.34c-0.19,0.1-0.31,0.17-0.37,0.19c-0.03,0-0.11,0.03-0.25,0.07
			c-0.13,0.04-0.28,0.1-0.43,0.15c-0.15,0.06-0.29,0.11-0.43,0.15s-0.22,0.08-0.24,0.11c-0.05,0-0.16,0.06-0.31,0.17
			c-0.15,0.11-0.3,0.24-0.46,0.38c-0.29,0.26-0.5,0.42-0.63,0.51c-0.12,0.08-0.25,0.16-0.39,0.21c-0.46,0.26-0.79,0.46-0.97,0.6
			c-0.19,0.14-0.39,0.3-0.61,0.47c-0.03,0.03-0.13,0.09-0.33,0.19c-0.19,0.1-0.31,0.16-0.36,0.19c-0.05,0.06-0.2,0.2-0.45,0.44
			c-0.24,0.24-0.4,0.41-0.48,0.53c-0.08,0.06-0.21,0.19-0.38,0.4c-0.17,0.21-0.27,0.34-0.3,0.4c-0.03,0.03-0.06,0.09-0.1,0.19
			c-0.04,0.1-0.07,0.15-0.1,0.15c-0.03,0.05-0.1,0.21-0.22,0.46c-0.12,0.25-0.19,0.4-0.21,0.46l0.01,0.62
			c0,0.05,0.02,0.16,0.05,0.31s0.05,0.25,0.05,0.31C345.53,73.86,345.6,73.92,345.68,74z"/>
		<path class="st34" d="M377.88,54.72l-0.01-0.29c0-0.08,0.01-0.26,0.05-0.54c0.04-0.28,0.07-0.56,0.1-0.87
			c0.03-0.3,0.07-0.59,0.1-0.87s0.05-0.46,0.05-0.54l-0.03-1.32l-0.03-1.32c-0.06-0.19-0.19-0.31-0.38-0.36
			c-0.03-0.03-0.09-0.06-0.17-0.1s-0.14-0.06-0.17-0.06l-0.16,0l-0.21,0c-0.14,0.03-0.42,0.23-0.85,0.6
			c-0.43,0.37-0.88,0.78-1.35,1.23c-0.47,0.45-0.89,0.86-1.27,1.22c-0.37,0.37-0.57,0.56-0.6,0.59c-0.05,0.06-0.21,0.21-0.48,0.45
			s-0.43,0.39-0.48,0.44c-0.08,0.06-0.2,0.15-0.37,0.28c-0.16,0.13-0.33,0.26-0.51,0.4c-0.17,0.14-0.35,0.28-0.53,0.4
			c-0.18,0.13-0.3,0.21-0.39,0.24c-0.03-0.03-0.05-0.07-0.08-0.12c-0.03-0.05-0.07-0.11-0.13-0.16l-0.01-0.25
			c-0.03-0.08-0.04-0.15-0.04-0.2s-0.02-0.11-0.04-0.16c-0.03-0.05-0.06-0.16-0.09-0.31s-0.05-0.25-0.05-0.31
			c0.03-0.03,0.09-0.09,0.2-0.19c0.11-0.1,0.22-0.21,0.34-0.32c0.12-0.11,0.23-0.23,0.34-0.34c0.11-0.11,0.17-0.2,0.2-0.25
			c1.47-1.68,2.66-2.91,3.56-3.69c0.9-0.78,1.62-1.29,2.17-1.55c0.54-0.26,0.96-0.35,1.25-0.28s0.56,0.11,0.8,0.1l0.17,0
			c0.08,0,0.12,0.01,0.12,0.04c0.2,0.13,0.39,0.29,0.59,0.48c0.2,0.19,0.27,0.39,0.22,0.61c0.06,0.27,0.13,0.59,0.21,0.94
			c0.08,0.36,0.12,0.6,0.12,0.74c0,0.11,0.01,0.29,0.03,0.54c0.02,0.25,0.03,0.51,0.04,0.78c0.01,0.27,0.01,0.53,0,0.78
			c-0.01,0.25-0.01,0.43-0.01,0.54l0.17,0.16c0,0.03,0.09-0.01,0.26-0.11s0.32-0.18,0.43-0.24c0.05-0.03,0.15-0.09,0.28-0.19
			c0.13-0.1,0.22-0.16,0.24-0.19c0.22-0.14,0.53-0.35,0.95-0.64c0.42-0.28,0.89-0.61,1.4-0.98c0.51-0.37,1.03-0.74,1.56-1.13
			c0.53-0.38,1.01-0.75,1.44-1.09c0.19-0.11,0.37-0.23,0.53-0.34c0.16-0.11,0.28-0.17,0.37-0.17c0.14-0.03,0.22-0.05,0.25-0.05
			c0.05,0,0.11,0.01,0.17,0.02c0.05,0.01,0.09,0.02,0.12,0.02l0.17,0.16c0.03,0.03,0.06,0.08,0.11,0.16
			c0.04,0.08,0.07,0.14,0.07,0.16l0,0.21l0,0.16c0,0.03-0.02,0.11-0.05,0.25c-0.04,0.14-0.07,0.23-0.1,0.29l-0.16,0.33
			c-0.05,0.08-0.19,0.23-0.4,0.44c-0.21,0.21-0.41,0.41-0.6,0.61c-0.13,0.14-0.22,0.24-0.26,0.29c-0.04,0.06-0.09,0.15-0.14,0.29
			c0,0.03-0.04,0.14-0.12,0.35c-0.08,0.21-0.16,0.43-0.25,0.66c-0.09,0.23-0.17,0.46-0.25,0.66c-0.08,0.21-0.11,0.33-0.11,0.35
			l0,0.17c0.03,0.03,0.04,0.07,0.04,0.12l0,0.04c0.06,0.05,0.11,0.15,0.15,0.28c0.04,0.14,0.07,0.22,0.07,0.25
			c0.05,0.03,0.13,0.07,0.23,0.14s0.18,0.11,0.23,0.14c0.05,0.05,0.18,0.12,0.38,0.2c0.19,0.08,0.32,0.12,0.37,0.11
			c0.44-0.04,0.78-0.06,1.03-0.06s0.46-0.04,0.63-0.1c0.18-0.06,0.38-0.16,0.59-0.3c0.22-0.14,0.53-0.38,0.93-0.72l1.21,0.88
			c0,0.03-0.06,0.12-0.18,0.27s-0.22,0.29-0.3,0.4c-0.19,0.25-0.47,0.47-0.85,0.66s-0.78,0.34-1.2,0.46
			c-0.42,0.12-0.82,0.2-1.19,0.23c-0.37,0.04-0.61,0.04-0.72,0.02c-0.05,0-0.22-0.02-0.5-0.05c-0.28-0.04-0.48-0.08-0.62-0.13
			c-0.05,0-0.13-0.02-0.21-0.06s-0.14-0.07-0.17-0.1c-0.08-0.02-0.23-0.11-0.46-0.26c-0.22-0.14-0.36-0.24-0.42-0.3
			c-0.22-0.24-0.39-0.64-0.5-1.2s-0.17-1.03-0.18-1.42c0.04-0.39,0.07-0.59,0.09-0.6c0.01-0.02-0.04-0.08-0.15-0.18l-1.06,0.56
			c-0.05,0.03-0.2,0.14-0.43,0.34c-0.23,0.2-0.37,0.32-0.42,0.38c-0.05,0.03-0.15,0.09-0.29,0.19c-0.13,0.1-0.21,0.16-0.24,0.19
			c-0.03,0-0.08,0.06-0.16,0.17c-0.03,0.03-0.09,0.08-0.2,0.17s-0.22,0.18-0.35,0.28c-0.12,0.1-0.23,0.19-0.32,0.27
			c-0.1,0.09-0.15,0.14-0.18,0.17c-0.08,0.06-0.2,0.17-0.36,0.34c-0.16,0.17-0.34,0.35-0.52,0.55c-0.19,0.2-0.36,0.38-0.52,0.55
			c-0.16,0.17-0.27,0.28-0.32,0.34l-0.25,0.01C378.23,55.62,377.89,55.32,377.88,54.72z"/>
		<path class="st34" d="M390.88,52.48c0-0.05,0.05-0.18,0.16-0.38c0.11-0.19,0.17-0.32,0.2-0.37c0-0.03,0.02-0.14,0.05-0.33
			c0.04-0.19,0.07-0.32,0.09-0.37c0.05-0.14,0.14-0.33,0.25-0.58c0.12-0.25,0.21-0.48,0.29-0.71c0.02-0.14,0.06-0.23,0.12-0.29
			c0.02-0.05,0.13-0.2,0.32-0.44c0.19-0.24,0.31-0.38,0.36-0.44c0.05-0.08,0.14-0.22,0.28-0.4c0.13-0.18,0.21-0.3,0.24-0.36
			c0.11-0.2,0.16-0.31,0.16-0.33c0.13-0.22,0.26-0.41,0.38-0.54c0.12-0.14,0.28-0.32,0.46-0.55c0.05-0.03,0.15-0.14,0.28-0.34
			s0.21-0.32,0.24-0.38c0.11-0.14,0.33-0.43,0.68-0.88c0.05-0.05,0.2-0.15,0.45-0.3s0.39-0.23,0.45-0.26
			c0.05-0.06,0.2-0.18,0.43-0.36c0.23-0.18,0.37-0.3,0.42-0.36c0.05-0.05,0.14-0.12,0.26-0.21c0.12-0.09,0.21-0.14,0.26-0.17
			c0.38-0.23,0.79-0.44,1.24-0.63c0.45-0.19,0.91-0.29,1.37-0.3l0.37-0.01c0.03,0,0.08,0.02,0.17,0.06s0.14,0.07,0.17,0.1
			c0.19,0.05,0.32,0.17,0.38,0.36l0.01,0.62l0.02,0.62c0,0.03-0.02,0.11-0.06,0.25c-0.04,0.14-0.08,0.24-0.14,0.29
			c-0.05,0.14-0.13,0.36-0.25,0.66c-0.12,0.31-0.19,0.49-0.21,0.54c-0.05,0.11-0.14,0.28-0.26,0.5c-0.12,0.22-0.21,0.36-0.26,0.42
			c-0.05,0.06-0.17,0.18-0.36,0.36c-0.19,0.18-0.3,0.3-0.32,0.36c-0.03,0.03-0.07,0.09-0.14,0.19c-0.07,0.1-0.14,0.21-0.22,0.33
			c-0.08,0.13-0.15,0.25-0.22,0.36s-0.1,0.18-0.1,0.21c-0.05,0.08-0.15,0.22-0.28,0.4c-0.13,0.18-0.21,0.29-0.24,0.31
			c-0.03,0.03-0.11,0.09-0.26,0.17s-0.24,0.14-0.26,0.17c-0.08,0.08-0.22,0.23-0.42,0.44c-0.2,0.21-0.41,0.43-0.64,0.65
			s-0.44,0.44-0.64,0.65c-0.2,0.21-0.34,0.36-0.42,0.44c-0.14,0.06-0.29,0.16-0.47,0.3c-0.18,0.14-0.34,0.28-0.5,0.42
			c-0.08,0.06-0.25,0.22-0.52,0.51c-0.27,0.28-0.44,0.46-0.52,0.55l0,0.08v0.08l0.21,0.2c0.06,0.03,0.17,0.06,0.35,0.1
			s0.29,0.06,0.35,0.05l0.9-0.02c0.11,0,0.32,0.01,0.62,0.03c0.08,0,0.31-0.09,0.67-0.27c0.37-0.17,0.63-0.29,0.79-0.35
			c0.03,0,0.14-0.06,0.33-0.17c0.05,0,0.19-0.02,0.39-0.05c0.21-0.03,0.34-0.06,0.39-0.09c0.41-0.14,0.78-0.33,1.1-0.56
			c0.32-0.23,0.65-0.4,0.98-0.52c0.03,0,0.11-0.06,0.24-0.17c0.13-0.11,0.23-0.18,0.29-0.21c0.08-0.06,0.27-0.16,0.57-0.32
			c0.3-0.16,0.5-0.25,0.61-0.28l0.11,1.19c-0.05,0.03-0.11,0.07-0.16,0.13c-0.05,0.05-0.2,0.18-0.44,0.38
			c-0.21,0.2-0.48,0.41-0.79,0.64c-0.31,0.22-0.53,0.37-0.67,0.43c-0.3,0.22-0.59,0.39-0.88,0.49c-0.29,0.1-0.7,0.3-1.24,0.58
			c-0.05,0-0.21,0.05-0.47,0.16c-0.26,0.1-0.44,0.15-0.55,0.16c-0.27,0.06-0.61,0.18-1,0.35c-0.39,0.17-0.63,0.28-0.71,0.3
			l-0.45,0.01l-0.57,0.01c-0.17-0.02-0.43-0.05-0.79-0.09c-0.36-0.03-0.57-0.05-0.62-0.04c-0.05-0.03-0.15-0.09-0.29-0.18
			c-0.14-0.09-0.22-0.15-0.25-0.18c-0.05-0.03-0.21-0.06-0.46-0.11c-0.25-0.05-0.4-0.09-0.46-0.11c-0.06-0.03-0.13-0.06-0.21-0.1
			s-0.13-0.07-0.13-0.1c-0.03,0-0.06-0.04-0.11-0.12c-0.04-0.08-0.07-0.15-0.07-0.2c-0.06-0.14-0.14-0.33-0.24-0.59
			c-0.1-0.26-0.15-0.42-0.16-0.47c-0.04-0.3-0.05-0.48-0.05-0.53S390.86,52.75,390.88,52.48z M399.72,44.3
			c-0.12,0.02-0.2,0.03-0.23,0.03c-0.14,0.03-0.26,0.1-0.37,0.21c-0.08,0.06-0.25,0.2-0.5,0.42c-0.26,0.22-0.5,0.42-0.75,0.59
			c-0.13,0.14-0.27,0.23-0.41,0.28c-0.13,0.04-0.27,0.1-0.41,0.15c-0.11,0-0.16,0.06-0.16,0.17c-0.03,0.03-0.07,0.08-0.12,0.15
			c-0.05,0.07-0.13,0.17-0.24,0.31c-0.19,0.22-0.31,0.36-0.36,0.42c-0.05,0.06-0.19,0.21-0.4,0.46c-0.13,0.17-0.29,0.37-0.46,0.59
			c-0.17,0.22-0.34,0.43-0.5,0.63c-0.16,0.2-0.3,0.38-0.44,0.54c-0.13,0.17-0.21,0.27-0.24,0.29c-0.05,0.08-0.14,0.24-0.26,0.48
			c-0.12,0.24-0.24,0.49-0.37,0.75c-0.13,0.27-0.25,0.52-0.36,0.75c-0.1,0.23-0.17,0.41-0.19,0.52l0.08,0l0.12,0
			c0.27-0.2,0.43-0.33,0.49-0.38c0.19-0.12,0.37-0.24,0.55-0.38s0.29-0.22,0.34-0.26c0.13-0.11,0.3-0.24,0.5-0.38
			c0.2-0.14,0.32-0.21,0.35-0.21c0.08-0.08,0.21-0.21,0.4-0.4c0.19-0.18,0.4-0.38,0.62-0.59c0.23-0.21,0.44-0.41,0.63-0.59
			c0.19-0.18,0.32-0.32,0.4-0.4c0.03-0.03,0.1-0.11,0.22-0.25c0.12-0.14,0.25-0.29,0.4-0.46c0.15-0.17,0.27-0.32,0.38-0.46
			s0.17-0.24,0.2-0.29c0.03-0.03,0.12-0.11,0.26-0.25s0.23-0.22,0.26-0.25c0.08-0.14,0.21-0.37,0.38-0.69s0.27-0.51,0.29-0.56
			c0.03-0.08,0.06-0.25,0.09-0.5c0.04-0.25,0.05-0.4,0.05-0.45C399.94,44.28,399.85,44.29,399.72,44.3z"/>
		<path class="st34" d="M408.82,52.26c0.02-0.11,0.05-0.3,0.09-0.56c0.04-0.26,0.06-0.44,0.09-0.52c0-0.05,0.04-0.19,0.11-0.41
			c0.08-0.22,0.14-0.38,0.2-0.46c0.03-0.03,0.08-0.11,0.16-0.25c0.08-0.14,0.15-0.24,0.2-0.29c0.03-0.05,0.11-0.17,0.24-0.36
			c0.13-0.18,0.22-0.3,0.28-0.36c0.13-0.22,0.24-0.4,0.32-0.52s0.15-0.24,0.22-0.36c0.06-0.11,0.11-0.18,0.14-0.21
			c0.08-0.09,0.24-0.28,0.48-0.59c0.24-0.31,0.41-0.52,0.52-0.63c0-0.03-0.05-0.04-0.16-0.04s-0.16,0.02-0.16,0.04
			c-0.05,0-0.16,0.12-0.3,0.34c-0.15,0.22-0.32,0.45-0.54,0.67c-0.14,0.14-0.28,0.26-0.45,0.36c-0.16,0.1-0.39,0.22-0.69,0.37
			c-0.3,0.17-0.49,0.29-0.59,0.37c-0.09,0.07-0.21,0.15-0.34,0.24c-0.13,0.08-0.3,0.2-0.48,0.34c-0.19,0.14-0.3,0.21-0.32,0.21
			l-0.73,0.39c-0.03,0.03-0.13,0.11-0.32,0.26c-0.19,0.14-0.31,0.22-0.37,0.25c-0.05,0.05-0.14,0.13-0.26,0.21s-0.2,0.14-0.22,0.17
			c-0.05,0.03-0.19,0.1-0.41,0.21c-0.22,0.11-0.46,0.25-0.73,0.41c-0.27,0.16-0.51,0.3-0.73,0.43c-0.22,0.13-0.34,0.21-0.37,0.24
			c-0.54,0.34-1.02,0.62-1.44,0.84c-0.42,0.21-0.8,0.41-1.14,0.58c-0.34,0.17-0.66,0.34-0.98,0.5c-0.31,0.16-0.62,0.34-0.91,0.54
			c-0.05,0.03-0.18,0.07-0.37,0.11c-0.19,0.05-0.31,0.07-0.37,0.07c-0.05,0-0.14,0.01-0.27,0.03c-0.12,0.02-0.21,0.03-0.27,0.03
			c-0.28-0.19-0.46-0.44-0.55-0.77c-0.09-0.33,0.03-0.63,0.35-0.91c0.19-0.09,0.31-0.14,0.37-0.17c0.79-0.24,1.51-0.52,2.14-0.85
			c0.64-0.33,1.23-0.65,1.77-0.97c0.08-0.06,0.3-0.19,0.65-0.39c0.35-0.2,0.74-0.41,1.16-0.64c0.42-0.23,0.81-0.44,1.16-0.65
			c0.35-0.2,0.57-0.33,0.65-0.38c0.03-0.03,0.11-0.09,0.24-0.19c0.14-0.1,0.22-0.15,0.24-0.15c0.03-0.03,0.1-0.08,0.22-0.15
			c0.12-0.07,0.25-0.15,0.39-0.24c0.13-0.08,0.26-0.16,0.38-0.23c0.12-0.07,0.2-0.12,0.22-0.15c0.05,0,0.15-0.05,0.29-0.15
			c0.13-0.1,0.22-0.16,0.24-0.19c0.08-0.06,0.3-0.19,0.65-0.4c0.35-0.22,0.71-0.44,1.1-0.69c0.38-0.24,0.73-0.47,1.07-0.69
			c0.34-0.21,0.55-0.35,0.63-0.41c0.05-0.03,0.15-0.09,0.28-0.19c0.13-0.1,0.22-0.16,0.24-0.19c0.05-0.06,0.23-0.18,0.54-0.37
			c0.31-0.18,0.54-0.3,0.67-0.37c0.19-0.11,0.38-0.21,0.57-0.28c0.19-0.07,0.39-0.11,0.62-0.12l0.12,0c0.05,0,0.08,0.01,0.08,0.04
			c0.05,0,0.12,0.04,0.21,0.12c0.09,0.08,0.14,0.15,0.17,0.2c0,0.03,0.02,0.13,0.07,0.31c0.05,0.18,0.08,0.31,0.11,0.39l0,0.08
			l0,0.08c0,0.05-0.02,0.14-0.05,0.27c-0.04,0.12-0.07,0.21-0.1,0.27c-0.05,0.08-0.12,0.21-0.2,0.39c-0.08,0.18-0.13,0.29-0.16,0.31
			c0,0.03-0.04,0.08-0.12,0.17c-0.08,0.09-0.17,0.18-0.26,0.27c-0.09,0.1-0.19,0.2-0.28,0.3c-0.09,0.1-0.16,0.16-0.18,0.19
			c-0.11,0.14-0.27,0.35-0.48,0.63c-0.21,0.28-0.44,0.57-0.68,0.88c-0.24,0.31-0.46,0.59-0.66,0.84s-0.34,0.42-0.42,0.5
			c-0.05,0.08-0.13,0.2-0.21,0.36c-0.09,0.15-0.19,0.3-0.28,0.44c-0.09,0.14-0.17,0.27-0.24,0.4c-0.07,0.13-0.1,0.2-0.1,0.23
			c0,0.03-0.01,0.1-0.02,0.21c-0.01,0.11-0.02,0.19-0.01,0.25c0,0.05,0.02,0.19,0.05,0.41c0.03,0.05,0.11,0.14,0.25,0.26
			c0.14,0.12,0.24,0.21,0.29,0.26c0.03,0.03,0.08,0.06,0.17,0.1c0.08,0.04,0.14,0.07,0.16,0.1l0.21,0l0.16,0
			c1.09-0.19,2.07-0.54,2.92-1.04c0.85-0.5,1.77-1.01,2.74-1.53c0.03-0.03,0.08-0.06,0.16-0.11s0.15-0.06,0.21-0.06
			c-0.05,0.17-0.13,0.44-0.25,0.83c-0.11,0.39-0.2,0.64-0.25,0.75c0,0.03-0.05,0.08-0.14,0.17c-0.09,0.08-0.17,0.15-0.22,0.21
			c-0.03,0-0.1,0.04-0.22,0.13c-0.12,0.08-0.21,0.16-0.26,0.21c-0.05,0.05-0.2,0.15-0.45,0.3c-0.24,0.14-0.39,0.23-0.45,0.26
			c-0.35,0.23-0.64,0.39-0.87,0.49s-0.45,0.2-0.65,0.28c-0.2,0.09-0.42,0.17-0.65,0.26c-0.23,0.09-0.52,0.22-0.88,0.39l-0.87,0.02
			l-0.9,0.02c-0.03,0-0.11-0.02-0.23-0.06c-0.12-0.04-0.21-0.07-0.27-0.1c-0.05-0.05-0.2-0.14-0.44-0.26
			c-0.24-0.12-0.4-0.2-0.48-0.26l-0.17-0.16c-0.06-0.11-0.13-0.27-0.22-0.49c-0.09-0.22-0.14-0.35-0.17-0.41l-0.01-0.37
			L408.82,52.26z"/>
	</g>
</g>
</svg>
